<svg width="109" height="308" xmlns="http://www.w3.org/2000/svg"><title>helen</title><g id="Page-1-Annotations" fill="none" fill-rule="evenodd"><g id="Group-2"><path d="M5.115 300.4c32.75 9.57 70.157 9.881 103.354.858-15.052-7.193-33.315-10.015-51.176-9.577-17.862.433-35.408 3.975-52.178 8.718" id="Fill-51" fill="#E0E0E0"/><path d="M91.177 65.522a115.242 115.242 0 0 0 4.328-21.338c1.016-9.595 1.144-20.177-4.06-28.735-2.997-4.93-9.617-10.73-15.641-9.112C72.884 2.653 68.149.73 63.465.433c-4.683-.298-9.346.87-13.764 2.457a72.9 72.9 0 0 0-20.06 11.039c-3.447 2.68-6.71 5.747-8.775 9.598-2.063 3.853-2.624 9.645-.917 13.668 1.15 2.71 3.328 4.472 4.031 7.39.638 2.65.469 5.501-.543 8.037-1.47 3.681-4.688 6.617-8.482 7.737 3.074 4.966 10.236 8.623 15.327 11.094 6.007 2.915 12.436 4.915 18.978 6.199 12.34 2.423 25.016 2.403 37.588 2.18.453 0 3.888-12.856 4.33-14.31" id="Fill-52" fill="#7C3D3D"/><path d="M64.037 64.44l.175 16.058c.012.7.646 8.608.653 9.308-6.166.606-14.066 2.332-20.12 1.006.28-2.97 1.571-15.238 1.851-18.203.273-2.841.54-5.682.813-8.523a61.528 61.528 0 0 1 16.628.353" id="Fill-53" fill="#F9AB6D"/><path d="M64.037 64.44l.175 16.058a96.44 96.44 0 0 1-17.616-7.89c.273-2.84.54-5.681.813-8.522a61.528 61.528 0 0 1 16.628.353" id="Fill-54" fill="#EF9152"/><path d="M89.46 43.31c-.664 3.38-1.741 6.67-3.288 9.743-3.361 6.688-9.052 12.318-16.062 14.915-5.906 2.187-12.412 2.17-18.646 1.318-4.914-.67-9.868-1.88-14.022-4.591-4.154-2.71-7.424-7.13-7.782-12.085-.413-5.83 3.09-11.13 4.444-16.818.073-.295.142-.597.198-.891 1.337-6.875-.856-14.404 2.069-20.773 1.508-3.284 4.273-5.886 7.447-7.608 3.168-1.721 6.733-2.613 10.315-3.068 6.138-.784 12.497-.307 18.272 1.932 5.77 2.233 10.921 6.295 13.976 11.693 2.42 4.278 3.469 9.221 3.798 14.13.272 4.034.062 8.137-.72 12.102" id="Fill-55" fill="#F9AB6D"/><path d="M52.06 45.801a18.433 18.433 0 0 0-6.668-1.82 13.73 13.73 0 0 0 1.324 3.5c.211.389.465.789.868.968.493.22 1.068.052 1.558-.175a7.21 7.21 0 0 0 2.918-2.473" id="Fill-56" fill="#EF9152"/><path d="M33.144 38.989S25.036 25.83 30.78 15.503c5.542-9.966 30.614-18.174 46.03-8.314 6.386 4.085 15.151 8.033 14.443 38.978 0 0-9.95-5.42-13.669-9.707-6.42-7.402-6.646-22.19-6.646-22.19S50.865 26.1 34.608 32.805c0 0 .695 1.343-1.464 6.185" id="Fill-57" fill="#7C3D3D"/><path d="M82.104 51.036a17.153 17.153 0 0 0 5.163-9.338l-5.135-2.112c-.01 3.816-.02 7.633-.028 11.45" id="Fill-58" fill="#7C3D3D"/><path d="M62.004 39.898c-.988.064-1.752.793-2.186 1.578a4.803 4.803 0 0 0-.399 3.71c.202.667.588 1.34 1.263 1.687.949.488 2.213.163 2.94-.54.726-.705 1.005-1.692 1.097-2.651.082-.843.028-1.73-.415-2.49-.443-.758-1.35-1.356-2.3-1.294" id="Fill-59" fill="#4F2C0F"/><path d="M41.772 36.194c-.947.061-1.678.76-2.095 1.512a4.605 4.605 0 0 0-.382 3.554c.194.64.564 1.284 1.21 1.617.909.469 2.121.157 2.817-.518.697-.674.964-1.62 1.052-2.54.078-.807.027-1.657-.398-2.385-.425-.727-1.294-1.3-2.204-1.24" id="Fill-60" fill="#4F2C0F"/><path d="M63.923 40.922a5.242 5.242 0 0 0 3.521.248c.009.773-.554 1.465-1.242 1.816-.688.35-1.481.418-2.253.435l-.026-2.499" id="Fill-61" fill="#4F2E12"/><path d="M41.107 36.566a4.984 4.984 0 0 1-3.185-1.062c-.287.677-.042 1.49.436 2.047.478.558 1.15.906 1.822 1.201l.927-2.186" id="Fill-62" fill="#4F2E12"/><path d="M46.435 30.792c.545-.301.59-1.134.226-1.64s-.994-.742-1.602-.874a7.422 7.422 0 0 0-4.613.496c-.268.123-.534.266-.731.485-.197.219-.314.529-.239.814.075.285.329.494.605.596.276.1.575.11.869.119l4.59.137c.305.01.627.015.895-.133" id="Fill-63" fill="#511D1D"/><path d="M60.982 33.082c-.45-.474-.244-1.365.268-1.793.512-.428 1.208-.496 1.85-.46a7.271 7.271 0 0 1 4.425 1.852c.23.206.45.433.58.72.13.289.154.649-.006.927-.16.28-.475.427-.779.454-.304.027-.604-.049-.898-.124l-4.592-1.177c-.305-.079-.627-.166-.848-.399" id="Fill-64" fill="#511D1D"/><path d="M51.582 54.035c.468.47.87 1.06.913 1.723.036.553-.183 1.097-.49 1.558-.984 1.481-2.9 2.213-4.656 1.95-1.756-.262-3.337-1.062-4.444-2.909-.463-.77-.564-1.837-.054-2.577.218-.317.556-.53.896-.709 1.248-.652 2.685-.956 4.085-.804 1.4.152 2.755.769 3.75 1.768" id="Fill-65" fill="#E06558"/><path d="M48.519 56.802c-.49-.032-1.02-.092-1.593-.189-4.568-.77-5.446-3.47-5.606-4.279a.699.699 0 0 1 1.37-.273c.082.418.686 2.534 4.467 3.172 4.458.751 5.986-.856 6.084-1.182a.685.685 0 0 1 .802-.569c.38.064.635.431.572.812-.123.735-.933 1.512-2.063 1.98-.805.333-2.109.653-4.033.528" id="Fill-66" fill="#E06558"/><path d="M85.504 45.51c.75-1.673 2.694-2.715 4.499-2.413 1.804.302 3.305 1.921 3.472 3.748.155 1.692-.72 3.309-1.746 4.66-1.206 1.591-2.745 3.039-4.663 3.581-1.918.543-4.254-.05-5.273-1.767l3.71-7.81" id="Fill-67" fill="#F9AB6D"/><path d="M52.663 230.544l-.762 63.25-.018 1.634s-9.127 4.929-11.77 4.22c-1.329-.354.226-2.425 2.09-4.394 1.856-1.952 4.021-3.807 4.021-3.807s-11.336-36.93-11.405-42.057c-.07-5.314 2.58-9.798 2.851-10.483.271-.678-4.53-12.296-4.53-12.296l19.523 3.933" id="Fill-68" fill="#F9AB6D"/><path d="M76.216 290.673c.397 1.032 1.178 8.441-.654 8.994-1.838.564-5.501-3.83-5.659-5.194-.044-.366-.025-1.026.019-1.801.132-2.113.49-5.073.49-5.073s-11.845-35.49-12.134-39.41c-.271-3.62 1.183-8.862 1.466-10.273.277-1.404-2.807-7.883-2.952-8.303l18.084-4.941s-2.279 11.107-2.046 11.81c.233.69 3.116 4.478 4.375 9.678 1.58 6.526-3.556 37.77-3.556 37.77l1.541 4.053c.454 1.189.87 2.287 1.026 2.69" id="Fill-69" fill="#F9AB6D"/><path d="M38.68 139.602s-14.699 16.77-15.707 34.827c-1.008 18.057 7.854 52.753 7.854 52.753s13.13 5.92 22.723 5.92c9.593 0 24.222-3.85 24.222-3.85s9.592-50.245 5.755-64.67c-3.837-14.424-11.751-23.32-11.751-23.32l-33.097-1.66" id="Fill-70" fill="#42344C"/><path d="M59.301 81.37s-3.897 6.076-3.897 6.486l-4.734-6.94-3.875-1.744s-5.038.769-8.116 2.082l1.71 53.954c.041 1.273 1.283 4.584 1.955 5.665 0 0 11.068 3.911 26.416.647 3.108-12.799 4.186-58.627 4.186-58.627l-6.425-2.76-7.22 1.237" id="Fill-71" fill="#9D7FAD"/><path d="M43.545 220.487s-17.159-1.183-23.07-4.735c0 0-3.845-37.55 1.185-52.284 3.92-11.503 15.886-25.82 15.886-25.82l-3.034-16.937s-5.79-7.357-6.124-10.865c-.327-3.509-1.101-25.372-.976-25.417 1.46-.505 6.616-2.644 12.91-3.969a64.327 64.327 0 0 1 2.045-.39s.693 25.396 1.065 46.85c.043 2.342.081 4.638.113 6.847.327 22.45 0 86.72 0 86.72" id="Fill-72" fill="#F4F0E9"/><path d="M68.894 80.066s-.847 31.246-1.176 53.7c-.328 22.454 0 86.715 0 86.715s17.16-1.177 23.07-4.73c0 0 3.841-37.551-1.182-52.282-3.923-11.502-15.891-25.821-15.891-25.821l3.034-16.938s5.795-7.358 6.125-10.864c.33-3.506 1.103-25.372.978-25.415-1.62-.558-7.754-3.118-14.958-4.365" id="Fill-73" fill="#F4F0E9"/><path d="M19.769 105.947s-5.083-1.563-7.651-1.407c-2.57.157-8.549 3.253-8.549 3.253s5.718 1.552 9.079 1.49c3.361-.06 7.12-3.336 7.12-3.336" id="Fill-74" fill="#E2D7C5"/><path d="M43.432 126.92a28.598 28.598 0 0 1-.523-.959 36.635 36.635 0 0 1-1.687-3.64c-1.013-2.505-1.787-5.1-2.417-7.724-1.265-5.23-2.43-10.354-3.305-15.668.92-.763 1.838-1.52 2.764-2.278.623-.517 1.674-.971 2.171-1.564-.434-.259-5.369-2.657-5.369-2.707 1.756-3.976 3.506-7.945 5.256-11.92a64.327 64.327 0 0 1 2.045-.39s.693 25.396 1.065 46.85" id="Fill-75" fill="#FCFAF8"/><path d="M67.799 126.92c.182-.315.352-.637.522-.959a36.59 36.59 0 0 0 1.687-3.64c1.013-2.505 1.788-5.1 2.417-7.724 1.265-5.23 2.43-10.354 3.304-15.668-.918-.763-1.838-1.52-2.763-2.278-.623-.517-1.674-.971-2.171-1.564.434-.259 5.368-2.657 5.368-2.707a9383.61 9383.61 0 0 1-5.255-11.92 64.69 64.69 0 0 0-2.046-.39s-.692 25.396-1.063 46.85" id="Fill-76" fill="#FCFAF8"/><path d="M40.674 80.452l4.445-5.258a15.093 15.093 0 0 0 7.797 4.274l-2.595 8.388a36.404 36.404 0 0 1-9.647-7.404" id="Fill-77" fill="#BA9DD1"/><path d="M70.084 80.452l-4.446-5.258a15.091 15.091 0 0 1-7.796 4.274l2.595 8.388a36.413 36.413 0 0 0 9.647-7.404" id="Fill-78" fill="#BA9DD1"/><path d="M15.736 109.785s-.522-5.505-.389-5.94c.212-.688 3.756-3.325 2.311-7.57-1.445-4.244-2.344-7.247-6.272-7.84-2.193-.33-4.092 2.803-6.36 3.185-.894.15-2.747-2.773-3.334-2.5-.59.273-1.078.066-1.176.47-.424 1.748.276 12.483 2.656 13.621 2.091 1 4.4 1.412 4.529 1.915.13.503.395 5.35.395 5.35s2.678.418 3.663.33c.984-.086 3.977-1.02 3.977-1.02" id="Fill-79" fill="#F9AB6D"/><path d="M28.11 84.431s-1.224.68-2.758 3.985c-1.534 3.307-5.583 17.531-5.583 17.531s-4.004 2.922-6.842 3.307c-2.838.384-9.358-1.461-9.358-1.461s2.992 17.3 4.066 23.605c1.074 6.306 3.911 13.226 4.678 13.84.767.616 6.136 3.307 8.59 2.692 2.455-.615 5.907-4.383 6.367-5.844.46-1.46 6.443-27.527 6.443-27.527l-5.604-30.128" id="Fill-80" fill="#F4F0E9"/><path d="M78.57 191.32c1.886.755 4.175.374 5.716-.95 2.005-1.723 2.538-4.587 2.742-7.227a51.73 51.73 0 0 0-.89-14.294 102538 102538 0 0 1-12.906-1.144 37.737 37.737 0 0 0 .34 16.226c.367 1.504.832 3.001 1.625 4.329.792 1.329 1.94 2.486 3.373 3.06" id="Fill-81" fill="#FCFAF8"/><path d="M77.499 168.124c1.414.127 6.266.515 6.266.515-.07-.889-.68-2.758-1.338-3.365-.448-.414-1.044-.78-1.135-1.384-.075-.505.243-.977.545-1.39l2.329-3.178c-1.303-.465-2.606-.93-3.91-1.397l-3.409 3.934c-.92 1.062-2.184 2.11-2.538 3.532-.215.862-.033 1.769.15 2.64l.891 4.236c.12.567.424 1.28.998 1.22.392-.042.633-.441.782-.806a7.6 7.6 0 0 0 .369-4.557" id="Fill-82" fill="#F9AB6D"/><path d="M83.852 84.431c2.277 1.03 3.584 2.013 4.81 5.37 1.224 3.357 14.456 41.839 13.557 46.916-.899 5.076-16.743 26.527-17.315 27.51 0 0-3.757-.9-5.717-1.965-1.96-1.065-4.982-6.55-4.982-6.55s13.846-21.452 14.029-22.025c.182-.573-7.169-20.47-7.904-22.27-.735-1.802 3.522-26.986 3.522-26.986" id="Fill-83" fill="#F4F0E9"/><path d="M32.64 117.272c-1.423-1.878-2.9-3.893-3.105-6.242-.16-1.839.487-3.641 1.123-5.373l3.378-9.185a11.523 11.523 0 0 1-5.458 3.368l2.531.937-2.205 5.114c-.622 1.442-1.256 2.95-1.174 4.519.076 1.452.77 2.816 1.695 3.936s2.075 2.028 3.215 2.926" id="Fill-84" fill="#E2D7C5"/><path d="M81.607 113.835c.76-2.908.31-5.417-.705-8.178-1.125-3.062-2.25-6.123-3.377-9.185a11.523 11.523 0 0 0 5.458 3.368l-2.531.937c.734 1.705 1.47 3.41 2.205 5.114.582 1.35.932 2.903.66 4.38-.255 1.376-.657 2.656-1.71 3.564" id="Fill-85" fill="#E2D7C5"/><path d="M32.655 191.32c-1.885.755-4.174.374-5.716-.95-2.005-1.723-2.537-4.587-2.741-7.227a51.753 51.753 0 0 1 .89-14.294c4.301-.38 8.603-.762 12.905-1.144a37.718 37.718 0 0 1-.34 16.226c-.365 1.504-.832 3.001-1.624 4.329-.793 1.329-1.94 2.486-3.374 3.06" id="Fill-86" fill="#FCFAF8"/><path d="M25.064 133.079c-1.392-8.101-2.79-16.231-5.259-24.07 2.364 11.375 4.74 22.89 4.264 34.5 2.117-2.9 1.603-6.888.995-10.43" id="Fill-87" fill="#E2D7C5"/><path d="M74.377 156.217c-.043.703.383 1.337.79 1.91l2.6 3.658a21.612 21.612 0 0 1-6.108-5.981c2.775-2.548 5.158-5.49 7.53-8.42l-4.304 7.512c-.236.413-.48.846-.508 1.321" id="Fill-88" fill="#E2D7C5"/><path d="M55.673 141.68a507.186 507.186 0 0 1-.332-52.314c.587 17.596.592 35 .332 52.315" id="Fill-89" fill="#7F6193"/><path d="M53.168 94.986c-.081-.417-.284-.938-.707-.925-.387.01-.581.47-.638.853a5.15 5.15 0 0 0 .332 2.696c.536-.015.963-.505 1.091-1.027.128-.522.025-1.07-.078-1.597" id="Fill-90" fill="#7F6193"/><path d="M53.168 112.985c-.081-.417-.284-.937-.707-.925-.387.011-.581.47-.638.853a5.149 5.149 0 0 0 .332 2.696c.536-.015.963-.505 1.091-1.027.128-.522.025-1.07-.078-1.597" id="Fill-91" fill="#7F6193"/><path d="M53.168 130.985c-.081-.417-.284-.938-.707-.926-.387.011-.581.47-.638.854a5.147 5.147 0 0 0 .332 2.695c.536-.015.963-.505 1.091-1.026.128-.523.025-1.07-.078-1.597" id="Fill-92" fill="#7F6193"/><path d="M49.1 119.23c4.55-2.904 10.973-2.451 15.072 1.064-5.745-1.447-11.812 1.068-17.685.292l2.613-1.356" id="Fill-93" fill="#7F6193"/><path d="M12.657 106.311l-3.033 1.29-1.25-5.825 3.295-.856.988 5.391" id="Fill-94" fill="#42344C"/><path d="M7.96 101.951c-2.88-.16-5.554-2.265-6.391-5.032-.839-2.768.216-6.008 2.522-7.747 2.306-1.738 5.703-1.856 8.123-.282 2.42 1.575 3.696 4.734 3.051 7.552a7.185 7.185 0 0 1-2.975 4.324 7.13 7.13 0 0 1-4.33 1.185" id="Fill-95" fill="#BCBCBC"/><path d="M8.195 97.688c-1.145-.064-2.208-.901-2.542-2.002-.333-1.1.086-2.389 1.003-3.08.918-.692 2.268-.739 3.23-.112.963.626 1.471 1.882 1.215 3.003a2.86 2.86 0 0 1-1.184 1.72 2.835 2.835 0 0 1-1.722.47" id="Fill-96" fill="#9E9E9E"/><path d="M24.67 117.487c-.153 0-.307-.003-.46-.009-7.155-.246-11.647-4.092-14.138-12.1a.751.751 0 0 1 .493-.94.745.745 0 0 1 .937.493c2.306 7.415 6.24 10.822 12.759 11.048 6.03.21 11.95-4.135 13.51-9.884.923-3.399.488-6.986-.13-10.984l-.032-.209c-.578-3.737-1.175-7.602-.34-11.375.814-3.678 3.529-7.754 7.76-8.568a.747.747 0 0 1 .875.596.75.75 0 0 1-.594.878c-3.562.685-5.871 4.22-6.578 7.419-.775 3.498-.2 7.22.357 10.821l.032.208c.644 4.172 1.095 7.924.095 11.608-1.695 6.246-8.026 10.998-14.546 10.998" id="Fill-97" fill="#42344C"/><path d="M70.084 100.832a.75.75 0 0 1-.69-1.04c1.23-2.941 1.863-6.143 1.833-9.26-.059-5.878-2.422-11.682-6.485-15.923a.752.752 0 0 1 .021-1.061.747.747 0 0 1 1.059.02c4.324 4.515 6.84 10.693 6.902 16.95.033 3.318-.641 6.726-1.95 9.855a.748.748 0 0 1-.69.46" id="Fill-98" fill="#42344C"/><path d="M67.702 101.303c-1.054 0-2.177.484-2.927 1.217-1.349 1.319-1.96 3.282-2.42 5.207a53.609 53.609 0 0 0-1.437 10.423c3.951-2.416 7.148-6.07 8.89-10.412.353-.88.756-2.042.738-3.215-.016-1.094-.435-2.084-1.12-2.646-.486-.4-1.093-.574-1.724-.574zm-7.196 26.06a.75.75 0 0 1-.742-.663 55.615 55.615 0 0 1-.381-6.027 22.529 22.529 0 0 1-6.45 1.922.75.75 0 1 1-.205-1.487 21.15 21.15 0 0 0 6.667-2.107 55.058 55.058 0 0 1 1.504-11.624c.512-2.144 1.21-4.346 2.83-5.932 1.655-1.618 4.667-2.357 6.646-.73 1.037.852 1.645 2.232 1.669 3.786.021 1.44-.442 2.786-.847 3.797-1.98 4.937-5.72 9.042-10.318 11.608a53.989 53.989 0 0 0 .371 6.618.75.75 0 0 1-.655.833l-.09.006z" id="Fill-99" fill="#BCBCBC"/><path d="M69.02 111.36a.75.75 0 0 1-.749-.748c-.001-.727-.002-1.478-.16-2.16-.158-.68-.474-1.233-.89-1.558-.724-.563-1.776-.498-2.52-.248-.96.322-1.825.981-2.66 1.618a.75.75 0 0 1-.907-1.194c.89-.678 1.897-1.447 3.093-1.847 1.439-.484 2.9-.301 3.912.486.881.688 1.264 1.686 1.43 2.403.197.848.198 1.686.2 2.497a.75.75 0 0 1-.748.752h-.001" id="Fill-100" fill="#BCBCBC"/><path d="M67.676 99.778a3.534 3.534 0 0 1 2.36.636 3.547 3.547 0 0 1 1.373 2.028c.406-1.77.35-3.644-.16-5.387a9.567 9.567 0 0 0-3.573 2.723" id="Fill-101" fill="#42344C"/><path d="M50.404 121.033c-.455.197-.928.489-1.067.966-.168.579.256 1.201.804 1.45.548.25 1.178.215 1.777.146.619-.071 1.31-.22 1.645-.746.292-.459.2-1.1-.145-1.52-.344-.42-.897-.631-1.439-.65-.542-.019-1.077.139-1.575.354" id="Fill-102" fill="#42344C"/><path d="M59.42 126.844c.004.404.009.814.132 1.198.124.384.385.744.76.886.535.203 1.166-.104 1.46-.594.293-.49.298-1.109.156-1.663-.123-.48-.366-.952-.778-1.225-.412-.273-1.017-.29-1.371.056-.34.333-.362.866-.358 1.342" id="Fill-103" fill="#42344C"/><path d="M51.901 293.795l-.018 1.633s-9.127 4.929-11.77 4.22c-1.329-.354.226-2.425 2.09-4.394-.12.612.03 1.297.528 1.663.616.45 1.479.264 2.21.03a33.055 33.055 0 0 0 6.96-3.152" id="Fill-104" fill="#42344C"/><path d="M75.562 299.667c-1.838.564-5.501-3.83-5.659-5.194-.044-.366-.025-1.026.019-1.801a8.47 8.47 0 0 0 1.794 2.167c.27.229.573.457.925.499.491.066.97-.24 1.253-.643.283-.402.409-.894.516-1.375.396-1.753.661-3.542.78-5.337.454 1.189.87 2.287 1.026 2.69.397 1.032 1.178 8.441-.654 8.994" id="Fill-105" fill="#42344C"/><path d="M12.999 90.475c-.498.297-1.15.251-1.662-.018-.512-.27-.898-.737-1.181-1.241-.405-.72-.623-1.598-.36-2.38.266-.783 1.126-1.389 1.921-1.168.579.16.978.679 1.3 1.186.361.571.689 1.189.753 1.862.063.672-.192 1.413-.771 1.76" id="Fill-106" fill="#F9AB6D"/><path d="M6.548 89.753c-.532-.634-.866-1.477-.722-2.292.143-.815.85-1.547 1.676-1.555.281-.003.56.073.816.189a2.79 2.79 0 0 1 1.515 1.755c.187.658.11 1.404-.282 1.964-.39.56-1.112.897-1.78.756-.49-.103-.902-.435-1.223-.817" id="Fill-107" fill="#F9AB6D"/><path d="M15.647 103.397c.18-.219 3.374-2.918 3.262-4.842-.112-1.923-2.003-9.887-3.148-10.013-1.145-.127-2.416.904-2.06 3.029.357 2.125.912 5.216.775 5.591-.138.375-2.387 2.848-2.249 4.257.137 1.41 3.42 1.978 3.42 1.978" id="Fill-108" fill="#F9AB6D"/><path d="M5.811 90.591c-.146.287-.348.564-.642.696-.314.14-.69.09-.995-.068-.305-.157-.55-.41-.766-.678-.48-.595-.847-1.312-.877-2.076-.03-.764.332-1.57 1.009-1.925.676-.355 1.645-.12 1.967.574.738.979.861 2.384.304 3.477" id="Fill-109" fill="#F9AB6D"/><path d="M.49 89.79c-.01.345.11.746.197.977a7.56 7.56 0 0 0 .807 1.566c.295.438.738.887 1.26.81.348-.054.626-.347.748-.68.123-.33.114-.696.076-1.048-.052-.483-.159-.967-.388-1.396-.23-.428-.594-.798-1.05-.965-.452-.166-1.045-.097-1.433.205-.152.117-.21.313-.217.53" id="Fill-110" fill="#F9AB6D"/></g></g></svg>