<svg width="182" height="53" xmlns="http://www.w3.org/2000/svg"><title>Slice</title><g id="Page-1-Annotations" fill="none" fill-rule="evenodd"><g id="Group-3" fill-rule="nonzero"><g id="Group-2"><g id="Group" fill="#9478B3"><path d="M43.392.19H9.83C4.563.19.252 4.508.252 9.785v33.62C.252 48.682 4.562 53 9.831 53h33.56c5.27 0 9.58-4.318 9.58-9.595V9.785c0-5.277-4.31-9.595-9.58-9.595" id="Shape"/></g><g id="Group" transform="translate(31.754 19.007)" fill="#FFF"><path d="M7.912.18c-.747 0-1.462.232-2.064.646A3.63 3.63 0 0 0 3.785.18C1.732.18.061 1.91.061 4.036c0 .33.04.658.12.976.097.396.873 3.014 4.958 5.519l.71.435.709-.435c4.085-2.504 4.86-5.122 4.957-5.52.08-.317.121-.645.121-.975C11.636 1.91 9.966.18 7.912.18m0 1.367c1.305 0 2.363 1.114 2.363 2.49 0 .223-.028.44-.08.646 0 0-.534 2.345-4.347 4.682-3.812-2.337-4.345-4.682-4.345-4.682a2.626 2.626 0 0 1-.081-.647c0-1.375 1.058-2.49 2.363-2.49.887 0 1.66.515 2.063 1.276.405-.76 1.177-1.275 2.064-1.275" id="Shape"/></g><g id="Group" transform="translate(9.125 13.159)" fill="#FFF"><path d="M9.125 12.962c.264 0 .5-.011.758-.034 4.603-.349 8.241-4.16 8.241-8.8V.679A.683.683 0 0 0 17.437 0H14.69a.683.683 0 0 0-.686.68c0 .374.307.678.686.678h2.061v2.77c0 4.12-3.389 7.47-7.555 7.47s-7.554-3.35-7.554-7.47V1.72h2.06c.38 0 .687-.304.687-.68a.683.683 0 0 0-.687-.678H.955a.683.683 0 0 0-.687.679v3.087c0 4.636 3.633 8.446 8.231 8.799.207.016.415.035.626.035" id="Shape"/></g><g id="Group" transform="translate(17.52 27.048)" fill="#FFF"><path d="M20.048 4.534l-.712-.433-.049-.03c-.708 4.172-4.364 7.36-8.756 7.36-4.898 0-8.883-3.964-8.883-8.836V.021c-.25.022-.5.037-.755.037-.206 0-.41-.01-.612-.024v2.561c0 5.622 4.598 10.195 10.25 10.195 5.115 0 9.367-3.747 10.127-8.627l-.61.371z" id="Shape"/></g></g><g id="Group" transform="translate(65.176 15.612)" fill="#4E5567"><path d="M0 2.215C0 1.525.194 1.04.584.757.972.474 1.488.332 2.13.332c.457 0 .871.058 1.243.173.373.115.61.19.711.225v19.143H0V2.215z" id="Shape"/></g><g id="Group" transform="translate(71.734 21.775)" fill="#4E5567"><path d="M7.788 10.35c.446 0 .862-.082 1.246-.248a3.166 3.166 0 0 0 1.004-.68c.285-.289.504-.633.656-1.035a3.68 3.68 0 0 0 .228-1.309c0-.47-.076-.907-.228-1.309a2.917 2.917 0 0 0-.656-1.034 3.173 3.173 0 0 0-1.004-.68 3.11 3.11 0 0 0-1.246-.249 3.08 3.08 0 0 0-1.258.249 3.213 3.213 0 0 0-.991.68 2.912 2.912 0 0 0-.657 1.034 3.68 3.68 0 0 0-.227 1.31c0 .47.076.907.227 1.308.152.402.371.746.657 1.034a3.073 3.073 0 0 0 2.25.93M.235 7.078c0-1.012.196-1.946.59-2.8a6.853 6.853 0 0 1 1.62-2.226A7.679 7.679 0 0 1 4.842.572 7.993 7.993 0 0 1 7.788.037c1.036 0 2.013.18 2.933.537.92.358 1.723.85 2.41 1.48a6.872 6.872 0 0 1 1.62 2.224c.393.855.59 1.79.59 2.801 0 1.013-.197 1.947-.59 2.801a6.867 6.867 0 0 1-1.62 2.225 7.64 7.64 0 0 1-2.41 1.48 8.025 8.025 0 0 1-2.933.537 7.993 7.993 0 0 1-2.946-.537 7.67 7.67 0 0 1-2.396-1.48A6.848 6.848 0 0 1 .826 9.88c-.394-.854-.59-1.788-.59-2.8" id="Shape"/></g><g id="Group" transform="translate(88.54 21.364)" fill="#4E5567"><path d="M12.707 12.739a14.83 14.83 0 0 1-.76.445 7.71 7.71 0 0 1-1.14.498c-.446.156-.958.291-1.535.405a9.954 9.954 0 0 1-1.913.17 8.548 8.548 0 0 1-2.74-.445 6.686 6.686 0 0 1-2.32-1.322c-.665-.584-1.198-1.317-1.6-2.199C.297 9.41.096 8.385.096 7.215c0-1.117.197-2.116.59-2.997a6.351 6.351 0 0 1 1.6-2.212A7.026 7.026 0 0 1 4.645.644a8.66 8.66 0 0 1 2.87-.47c.927 0 1.797.117 2.61.353.812.235 1.42.554 1.822.955.192.192.345.397.459.615.113.219.17.476.17.773 0 .297-.053.567-.158.81a2.702 2.702 0 0 1-.392.656 4.58 4.58 0 0 1-.486.51c-.166.148-.31.258-.432.327-.315-.314-.752-.606-1.311-.877-.56-.27-1.224-.405-1.993-.405-.454 0-.887.07-1.297.209-.411.14-.77.35-1.076.628a3.05 3.05 0 0 0-.734 1.048c-.183.418-.275.898-.275 1.44 0 .575.092 1.068.275 1.478.184.41.429.746.734 1.008a2.89 2.89 0 0 0 1.089.576c.419.122.865.183 1.337.183.401 0 .773-.039 1.114-.118a6.207 6.207 0 0 0 1.56-.575c.174-.096.288-.17.34-.223l1.836 3.194z" id="Shape"/></g><g id="Group" transform="translate(102.887 21.775)" fill="#4E5567"><path d="M4.227 7.297c0 1.817.82 2.725 2.46 2.725 1.639 0 2.46-.908 2.46-2.725V2.03c0-.682.2-1.162.601-1.442.401-.279.933-.419 1.596-.419.471 0 .898.057 1.282.17.384.114.628.188.733.223v7.52c0 .978-.17 1.83-.51 2.555a5.058 5.058 0 0 1-1.4 1.808c-.594.48-1.3.842-2.12 1.087-.82.244-1.7.367-2.642.367a9.203 9.203 0 0 1-2.643-.367c-.82-.245-1.527-.607-2.12-1.087a5.048 5.048 0 0 1-1.4-1.808c-.34-.725-.51-1.577-.51-2.555V2.031c0-.682.2-1.162.602-1.442C1.017.31 1.55.17 2.212.17c.471 0 .898.057 1.283.17.383.114.627.188.732.223v6.734z" id="Shape"/></g><g id="Group" transform="translate(119.284 21.364)" fill="#4E5567"><path d="M0 5.479c0-.855.153-1.602.461-2.238a4.656 4.656 0 0 1 1.266-1.61A5.434 5.434 0 0 1 3.626.648 8.294 8.294 0 0 1 6.01.32c1.056 0 1.996.175 2.822.524.826.35 1.494.837 2.004 1.466.51-.629 1.169-1.117 1.977-1.466.809-.349 1.74-.524 2.796-.524.843 0 1.63.11 2.36.328a5.44 5.44 0 0 1 1.898.981c.536.437.958.974 1.266 1.61.307.637.46 1.384.46 2.239v8.56H17.35V6.683c0-.89-.185-1.527-.554-1.911-.369-.384-.888-.576-1.556-.576-.685 0-1.243.227-1.674.68-.43.454-.646 1.178-.646 2.173v6.99H8.675v-6.99c0-.995-.211-1.719-.633-2.173-.422-.453-.975-.68-1.661-.68-.669 0-1.19.192-1.57.576-.377.384-.566 1.021-.566 1.91v7.357H0v-8.56z" id="Shape"/></g><g id="Group" transform="translate(143.878 18.9)" fill="#4E5567"><path d="M2.152 5.29v7.735c0 .996.257 1.698.773 2.107.514.41 1.19.614 2.024.614.533 0 1.03-.089 1.492-.267.462-.178.817-.347 1.066-.507l.772 1.147c-.106.09-.27.196-.493.32-.222.125-.488.25-.799.373-.31.125-.675.227-1.092.307a7.3 7.3 0 0 1-1.372.12c-.71 0-1.323-.098-1.838-.293a3.467 3.467 0 0 1-1.279-.814 3.336 3.336 0 0 1-.76-1.24 4.704 4.704 0 0 1-.252-1.573V1.023C.394.756.469.539.62.37c.15-.17.395-.254.733-.254.16 0 .315.023.466.067.15.045.262.085.333.12V3.69h4.689c.373 0 .63.085.772.254a.94.94 0 0 1 .214.626c0 .143-.018.276-.053.4a3.464 3.464 0 0 1-.107.32H2.152z" id="Shape"/></g><g id="Group" transform="translate(152.486 21.775)" fill="#4E5567"><path d="M10.59 7.296a29 29 0 0 0-1.246-.21c-.673-.104-1.665-.156-2.976-.156-.647 0-1.232.043-1.756.13-.525.088-.975.241-1.35.46-.377.218-.665.51-.866.877-.201.367-.301.821-.301 1.362 0 .944.37 1.638 1.114 2.083.743.446 1.98.669 3.71.669 1.136 0 1.984-.048 2.543-.144.559-.096.935-.17 1.127-.223V7.296zm-4.825-5.66c-.979 0-1.774.123-2.385.368-.613.245-1.032.471-1.26.681a1.228 1.228 0 0 1-.327-.367.984.984 0 0 1-.144-.524c0-.192.048-.358.144-.497.096-.14.214-.262.354-.367.174-.14.56-.297 1.153-.472C3.894.284 4.7.196 5.713.196c2.08 0 3.697.428 4.85 1.284 1.153.856 1.73 2.236 1.73 4.14v7.834c-.507.087-1.236.179-2.19.275a32.67 32.67 0 0 1-3.236.144c-1.4 0-2.522-.122-3.37-.367-.848-.244-1.507-.563-1.98-.956-.47-.393-.785-.834-.943-1.323a4.76 4.76 0 0 1-.236-1.468c0-.628.096-1.2.288-1.716A3.02 3.02 0 0 1 1.61 6.72c.463-.367 1.088-.655 1.874-.864.787-.21 1.774-.315 2.963-.315.384 0 .786.013 1.206.04.42.026.817.052 1.193.078a23.3 23.3 0 0 1 1.022.092c.306.035.546.06.721.078v-.157c0-.803-.135-1.467-.406-1.991a3.332 3.332 0 0 0-1.075-1.245 4.084 4.084 0 0 0-1.534-.628 9.358 9.358 0 0 0-1.81-.171z" id="Shape"/></g><g id="Group" transform="translate(167.653 21.775)" fill="#4E5567"><path d="M12.237 7.075c0-.744-.117-1.448-.353-2.112a5.008 5.008 0 0 0-1.018-1.726A4.894 4.894 0 0 0 9.273 2.08c-.618-.283-1.32-.425-2.103-.425-.766 0-1.459.138-2.076.412a4.675 4.675 0 0 0-1.58 1.129 5.139 5.139 0 0 0-1.02 1.713 6.235 6.235 0 0 0-.365 2.165c0 .743.122 1.448.366 2.111.243.664.587 1.24 1.031 1.727.444.487.976.876 1.594 1.168a4.73 4.73 0 0 0 2.05.439c.784 0 1.485-.137 2.103-.412a4.639 4.639 0 0 0 1.593-1.155 5.172 5.172 0 0 0 1.018-1.727 6.32 6.32 0 0 0 .353-2.151zM.379 7.712a14.556 14.556 0 0 1 .13-1.992 7.544 7.544 0 0 1 .81-2.337A6.105 6.105 0 0 1 2.756 1.63 6.24 6.24 0 0 1 4.74.527 7.455 7.455 0 0 1 7.17.142c1.01 0 1.942.182 2.795.545a6.64 6.64 0 0 1 2.194 1.487 6.785 6.785 0 0 1 1.423 2.205c.34.841.51 1.74.51 2.696 0 .974-.17 1.881-.51 2.722a6.773 6.773 0 0 1-1.423 2.205 6.468 6.468 0 0 1-2.194 1.474c-.853.354-1.785.531-2.795.531-1.114 0-2.115-.235-3.004-.704-.887-.469-1.576-1.084-2.063-1.846v7.49H.379V7.712z" id="Shape"/></g></g></g></svg>