<svg width="531" height="53" xmlns="http://www.w3.org/2000/svg"><title>Patchwork logo</title><g id="Final-Horizontal" fill="none" fill-rule="evenodd"><g id="Group-6-Copy-15"><path d="M38.895 39.323V26.927h7.966A6.139 6.139 0 0 1 53 33.067v.117a6.139 6.139 0 0 1-6.139 6.139h-7.966z" id="Combined-Shape-Copy-7" fill="#27C0D5"/><rect id="Rectangle-Copy-27" fill="#556C7C" x="26.5" width="12.395" height="53" rx="6.139"/><rect id="Rectangle-Copy-28" fill="#F78F62" transform="rotate(90 26.5 20.73)" x="20.302" y="-5.77" width="12.395" height="53" rx="6.139"/><rect id="Rectangle-Copy-29" fill="#F8C93E" x="14.105" width="12.395" height="53" rx="6.139"/><path d="M16.087 39.323H6.14A6.139 6.139 0 0 1 0 33.183v-.117a6.139 6.139 0 0 1 6.139-6.139H26.5v12.396H16.087z" id="Combined-Shape-Copy-8" fill="#27C0D5"/></g><path d="M83 47.638V6.789c0-.617.494-1.172 1.172-1.172h14.871c7.59 0 13.822 6.17 13.822 13.637 0 7.651-6.232 13.883-13.76 13.883h-6.48v14.501c0 .617-.554 1.172-1.171 1.172h-7.282A1.172 1.172 0 0 1 83 47.638zm9.626-23.51h5.862c2.653 0 4.875-2.097 4.875-4.874 0-2.592-2.222-4.566-4.875-4.566h-5.862v9.44zM121.6 48.81c-.925 0-1.419-.802-1.049-1.604l19.314-41.527c.185-.37.617-.679 1.049-.679h.617c.432 0 .864.309 1.05.679l19.313 41.527c.37.802-.124 1.604-1.05 1.604h-6.849c-1.11 0-1.604-.37-2.16-1.542l-2.22-4.875h-16.784l-2.222 4.936c-.308.74-.987 1.481-2.221 1.481H121.6zm14.933-14.809h9.38l-4.69-10.181h-.062L136.534 34zm42.982 13.637v-32.95h-8.823a1.172 1.172 0 0 1-1.173-1.173V6.79c0-.617.494-1.172 1.173-1.172h27.397c.678 0 1.172.555 1.172 1.172v6.726c0 .617-.494 1.173-1.172 1.173h-8.824v32.95c0 .617-.556 1.172-1.173 1.172h-7.404c-.617 0-1.173-.555-1.173-1.172zm31.753-20.363A22.226 22.226 0 0 1 233.544 5c6.17 0 10.737 1.913 14.933 5.739.555.493.555 1.234.061 1.727l-4.813 4.998a1.08 1.08 0 0 1-1.542 0c-2.283-2.036-5.307-3.147-8.33-3.147-6.973 0-12.095 5.8-12.095 12.712 0 6.849 5.184 12.526 12.156 12.526 2.9 0 6.047-1.05 8.269-2.962.432-.37 1.234-.37 1.604.062l4.813 5.121c.432.432.37 1.234-.062 1.666-4.196 4.073-9.502 5.985-14.994 5.985-12.34 0-22.275-9.81-22.275-22.152zm53.904 20.363V6.789c0-.617.555-1.172 1.172-1.172h7.343c.679 0 1.173.555 1.173 1.172v15.55h17.647V6.789c0-.617.494-1.172 1.172-1.172h7.343c.617 0 1.173.555 1.173 1.172v40.849c0 .617-.556 1.172-1.173 1.172h-7.343a1.172 1.172 0 0 1-1.172-1.172V31.41H274.86v16.228c0 .617-.494 1.172-1.173 1.172h-7.343c-.617 0-1.172-.555-1.172-1.172zm64.517.926L318.028 7.098c-.247-.864.247-1.481 1.11-1.481h7.22c.494 0 .988.432 1.111.864l5.307 20.918h.246l9.565-21.72c.185-.37.555-.679 1.049-.679h1.11c.556 0 .926.309 1.05.679l9.564 21.72h.246l5.307-20.918c.123-.432.617-.864 1.11-.864h7.22c.864 0 1.358.617 1.11 1.481l-11.661 41.466c-.124.493-.617.863-1.111.863h-.987c-.432 0-.864-.308-1.05-.678l-11.29-25.239h-.185l-11.23 25.238c-.186.37-.618.678-1.05.678h-.987c-.494 0-.987-.37-1.11-.863zm53.226-21.289c0-12.34 9.81-22.275 22.152-22.275 12.34 0 22.214 9.934 22.214 22.275s-9.873 22.152-22.214 22.152-22.152-9.81-22.152-22.152zm9.873 0c0 6.726 5.553 12.28 12.279 12.28 6.787 0 12.34-5.554 12.34-12.28 0-6.787-5.553-12.402-12.34-12.402-6.726 0-12.28 5.615-12.28 12.402zm51.189 20.363V6.789a1.17 1.17 0 0 1 1.172-1.172h18.45c7.404 0 13.452 5.985 13.452 13.328 0 5.677-3.764 10.243-9.133 12.403l8.454 15.673c.432.802 0 1.79-1.05 1.79h-8.206c-.494 0-.864-.31-.987-.556l-8.207-16.352h-4.258v15.735c0 .617-.555 1.172-1.172 1.172h-7.343a1.172 1.172 0 0 1-1.172-1.172zm9.687-23.571h9.133c2.53 0 4.69-2.345 4.69-4.937 0-2.591-2.16-4.69-4.69-4.69h-9.133v9.627zm40.885 23.262V7.098c0-.802.617-1.481 1.48-1.481h7.22c.802 0 1.481.679 1.481 1.481v16.228l13.7-17.092c.246-.308.802-.617 1.172-.617h7.775c1.172 0 1.79 1.358 1.11 2.283L514.05 25.98l15.734 20.486c.68.925 0 2.283-1.172 2.283h-8.515c-.432 0-.988-.247-1.111-.432L504.731 28.94v18.39c0 .803-.679 1.481-1.48 1.481h-7.22a1.461 1.461 0 0 1-1.481-1.48z" id="PATCHWORK-Copy-2" fill="#486174"/></g></svg>