<?xml version="1.0" encoding="UTF-8"?>
<svg width="109px" height="308px" viewBox="0 0 109 308" version="1.1" xmlns="http://www.w3.org/2000/svg" xmlns:xlink="http://www.w3.org/1999/xlink">
    <!-- Generator: Sketch 43.2 (39069) - http://www.bohemiancoding.com/sketch -->
    <title>helen</title>
    <desc>Created with Sketch.</desc>
    <defs></defs>
    <g id="Page-1-Annotations" stroke="none" stroke-width="1" fill="none" fill-rule="evenodd">
        <g id="Group-2">
            <path d="M5.11521429,300.399064 C37.865522,309.969279 75.2722857,310.281481 108.469374,301.257622 C93.4171923,294.064951 75.1537033,291.243119 57.2926758,291.681404 C39.4310495,292.113684 21.885044,295.655984 5.11521429,300.399064" id="Fill-51" fill="#E0E0E0"></path>
            <path d="M91.1773022,65.5217466 C93.2890275,58.5686316 94.7395659,51.4125848 95.5049615,44.1844912 C96.5206978,34.5890604 96.6494615,24.0065887 91.4456099,15.449232 C88.447511,10.5194308 81.828456,4.71966472 75.803511,6.33651462 C72.884467,2.65252242 68.148956,0.731274854 63.4649505,0.432881092 C58.781544,0.135087719 54.1190989,1.30224561 49.7010055,2.88967641 C42.4902363,5.48095906 35.6921099,9.2219883 29.6402143,13.9290448 C26.1941374,16.6091852 22.9301264,19.6759766 20.8663132,23.5274776 C18.8030989,27.3795789 18.2419286,33.17154 19.9493956,37.1947524 C21.0992857,39.9055127 23.277489,41.6670565 23.98,44.5843509 C24.6178297,47.2344717 24.4489396,50.0863236 23.4367967,52.62177 C21.9670934,56.3033606 18.7491978,59.2386667 14.9545604,60.3589942 C18.0293187,65.3248187 25.190978,68.9823938 30.2822363,71.4529981 C36.2886154,74.3684912 42.7178187,76.3677895 49.2596154,77.6520234 C61.5999725,80.0745965 74.2757143,80.055384 86.8484451,79.8314386 C87.3006154,79.8314386 90.7359121,66.9758908 91.1773022,65.5217466" id="Fill-52" fill="#7C3D3D"></path>
            <path d="M64.0375,64.4392437 C64.0955934,69.795922 64.1536868,75.1471969 64.2117802,80.4978713 C64.2237582,81.1985263 64.8579945,89.1056608 64.8645824,89.8063158 C58.6988956,90.4121092 50.7993901,92.1376296 44.7450989,90.8119688 C45.0247857,87.8412398 46.3160165,75.5740741 46.5963022,72.6087485 C46.8694011,69.7677037 47.136511,66.9266589 47.409011,64.0862144 C52.9368681,63.4504016 58.544978,63.5698791 64.0375,64.4392437" id="Fill-53" fill="#F9AB6D"></path>
            <path d="M64.0375,64.4392437 C64.0955934,69.795922 64.1536868,75.1471969 64.2117802,80.4978713 C58.1005934,78.4679532 52.1888407,75.8208343 46.5963022,72.6087485 C46.8694011,69.7677037 47.136511,66.9266589 47.409011,64.0862144 C52.9368681,63.4504016 58.544978,63.5698791 64.0375,64.4392437" id="Fill-54" fill="#EF9152"></path>
            <path d="M89.4590549,43.3091228 C88.7960714,46.6899181 87.7186484,49.9794542 86.1716868,53.0534503 C82.8106538,59.7405926 77.1204945,65.3710487 70.1097582,67.9677349 C64.2039945,70.1549552 57.697533,70.1381442 51.4635714,69.2855906 C46.5495879,68.6155556 41.5960769,67.4051696 37.4420989,64.6950097 C33.287522,61.9848499 30.017522,57.5647797 29.659978,52.6103626 C29.2467363,46.780577 32.7491099,41.4797349 34.1038242,35.7922417 C34.177489,35.4968499 34.2457637,35.1954542 34.3020604,34.9006628 C35.6394066,28.0255984 33.4462308,20.4973099 36.3706648,14.1283743 C37.8786978,10.8442417 40.6438242,8.24215205 43.818,6.52023392 C46.9861868,4.79891618 50.5508462,3.90673684 54.1328736,3.45224172 C60.271011,2.66813255 66.629544,3.1454425 72.4047473,5.3842963 C78.1745604,7.6171462 83.3263077,11.679384 86.3813022,17.0768889 C88.8014615,21.3552671 89.8495385,26.2982768 90.1789341,31.2070643 C90.4508352,35.2410838 90.2412198,39.3435478 89.4590549,43.3091228" id="Fill-55" fill="#F9AB6D"></path>
            <path d="M52.0600769,45.8013411 C49.9782967,44.7812788 47.7024725,44.1604756 45.3919121,43.9815595 C45.671,45.2015517 46.1177802,46.3831189 46.7160824,47.4818324 C46.9274945,47.8696842 47.1814286,48.2695439 47.5838901,48.4490604 C48.0767857,48.6694035 48.6523297,48.500694 49.1422308,48.274347 C50.3130824,47.7333957 51.333011,46.8688343 52.0600769,45.8013411" id="Fill-56" fill="#EF9152"></path>
            <path d="M33.1437857,38.9887173 C33.1437857,38.9887173 25.0364615,25.8311735 30.780522,15.5026667 C36.3227527,5.53739571 61.3945495,-2.6711345 76.8102637,7.18906823 C83.1969451,11.2741209 91.9624615,15.2222846 91.2539615,46.1669786 C91.2539615,46.1669786 81.3032198,40.7472593 77.5852418,36.4604756 C71.1644231,29.058269 70.9392363,14.2706667 70.9392363,14.2706667 C70.9392363,14.2706667 50.8652692,26.1001481 34.6075,32.8041014 C34.6075,32.8041014 35.3028242,34.1471735 33.1437857,38.9887173" id="Fill-57" fill="#7C3D3D"></path>
            <path d="M82.1039505,51.0361404 C84.7576813,48.5805458 86.5969066,45.2549864 87.2670769,41.6976764 C85.5554176,40.9940195 83.8437582,40.2897622 82.1315,39.5855049 C82.1225165,43.4021832 82.1129341,47.219462 82.1039505,51.0361404" id="Fill-58" fill="#7C3D3D"></path>
            <path d="M62.0036319,39.898308 C61.016044,39.9619493 60.2524451,40.691423 59.8176429,41.4755322 C59.1905934,42.6066667 59.0462582,43.9503392 59.4193736,45.1853411 C59.6206044,45.8529747 60.0068956,46.5254113 60.682456,46.873037 C61.6305165,47.361154 62.8953956,47.0357427 63.6212637,46.3320858 C64.3477308,45.6284288 64.6268187,44.6413879 64.7190495,43.6819649 C64.8005,42.8390175 64.7471978,41.9522417 64.304011,41.1927485 C63.8608242,40.4338558 62.953489,39.8364678 62.0036319,39.898308" id="Fill-59" fill="#4F2C0F"></path>
            <path d="M41.7721538,36.1939025 C40.8252912,36.2551423 40.094033,36.9539961 39.6771978,37.7056842 C39.0765,38.7893879 38.9381538,40.0766238 39.2950989,41.2599922 C39.488544,41.9000078 39.8586648,42.5442261 40.505478,42.8774425 C41.414011,43.3457466 42.6261868,43.0335439 43.3221099,42.359306 C44.0186319,41.6850682 44.2857418,40.7394542 44.3743791,39.8196569 C44.4522363,39.0115322 44.4007308,38.1619805 43.9761099,37.434308 C43.551489,36.7072359 42.6818846,36.1344639 41.7721538,36.1939025" id="Fill-60" fill="#4F2C0F"></path>
            <path d="M63.9231099,40.9219727 C65.0208956,41.4082885 66.2893681,41.4977466 67.4440495,41.1699337 C67.453033,41.9432359 66.8900659,42.634885 66.2019286,42.9855127 C65.5143901,43.33554 64.7208462,43.4039844 63.9494615,43.4207953 L63.9231099,40.9219727" id="Fill-61" fill="#4F2E12"></path>
            <path d="M41.1067747,36.5655439 C39.9658681,36.5943626 38.8189725,36.2119142 37.9224176,35.5040546 C37.6349451,36.180694 37.8798956,36.9936218 38.3578187,37.5507836 C38.8357418,38.1085458 39.5083077,38.4573723 40.1796758,38.7521637 L41.1067747,36.5655439" id="Fill-62" fill="#4F2E12"></path>
            <path d="M46.4351978,30.7915945 C46.9801978,30.4907992 47.0251154,29.6580585 46.6609835,29.1525302 C46.2968516,28.6464016 45.6668077,28.409848 45.0589231,28.2777622 C43.5209451,27.9445458 41.8781593,28.1216608 40.4461868,28.7742846 C40.178478,28.8967641 39.911967,29.0396569 39.7149286,29.2587992 C39.518489,29.4779415 39.4011044,29.7877427 39.475967,30.0729279 C39.5514286,30.3575127 39.8047637,30.5670487 40.0808571,30.6685146 C40.3569505,30.7693801 40.6564011,30.7795867 40.9498626,30.7879922 C42.4800549,30.8342222 44.0096484,30.8798519 45.5398407,30.9254815 C45.8452802,30.9344873 46.167489,30.9398908 46.4351978,30.7915945" id="Fill-63" fill="#511D1D"></path>
            <path d="M60.9819066,33.0820819 C60.531533,32.6077739 60.7375549,31.7173957 61.2502143,31.2893177 C61.7622747,30.8612398 62.4581978,30.7927953 63.1008187,30.8288187 C64.7250385,30.9206784 66.3019451,31.5805068 67.5255,32.6810214 C67.7542802,32.8869552 67.9758736,33.1139025 68.1052363,33.4014893 C68.2351978,33.6896764 68.2585549,34.0499103 68.0986484,34.3284912 C67.9381429,34.6070721 67.6243187,34.7553684 67.3200769,34.782386 C67.0158352,34.8094035 66.7157857,34.733154 66.4223242,34.6581053 C64.891533,34.2654503 63.3607418,33.8733957 61.8299505,33.4807407 C61.524511,33.4020897 61.2029011,33.3150331 60.9819066,33.0820819" id="Fill-64" fill="#511D1D"></path>
            <path d="M51.5815549,54.0350877 C52.0498956,54.5057934 52.4511593,55.0941754 52.4948791,55.7576062 C52.5308132,56.3105653 52.3122143,56.8545185 52.0055769,57.3162183 C51.0209835,58.7973801 49.1045,59.528655 47.348522,59.2662846 C45.592544,59.0039142 44.012044,58.2035945 42.9046758,56.3573957 C42.4423242,55.5864951 42.3411099,54.5202027 42.8507747,53.779922 C43.0693736,53.4629162 43.4065549,53.2497778 43.7467308,53.071462 C44.9954396,52.4188382 46.4322033,52.1150409 47.8324341,52.2669396 C49.2320659,52.4194386 50.5873791,53.036039 51.5815549,54.0350877" id="Fill-65" fill="#E06558"></path>
            <path d="M48.5187747,56.8022846 C48.0288736,56.7704639 47.4982473,56.7098246 46.9262967,56.6131618 C42.3578791,55.8428616 41.4798901,53.1429084 41.3199835,52.3341832 C41.244522,51.9547368 41.4906703,51.5866979 41.8685769,51.5110487 C42.2476813,51.4378012 42.6136099,51.6815595 42.6890714,52.0610058 C42.7717198,52.4788772 43.376011,54.5952515 47.1574725,55.2328655 C51.6150934,55.9839532 53.143489,54.3773099 53.240511,54.0506979 C53.3039945,53.6694503 53.6525549,53.4154854 54.0430385,53.4821287 C54.4239396,53.5463704 54.6784725,53.9132086 54.614989,54.2944561 C54.4922143,55.0287329 53.6825,55.8056374 52.5517747,56.2733411 C51.7468516,56.6065575 50.443044,56.9265653 48.5187747,56.8022846" id="Fill-66" fill="#E06558"></path>
            <path d="M85.5039121,45.5095517 C86.2543352,43.8368655 88.1983681,42.7945887 90.0028571,43.0965848 C91.8073462,43.3991813 93.3075934,45.0184327 93.4752857,46.8448187 C93.6304011,48.5367173 92.7554066,50.1535673 91.729489,51.5056452 C90.5227033,53.096078 88.9841264,54.5436179 87.0658462,55.0863704 C85.1475659,55.6291228 82.8118516,55.036538 81.7931209,53.3188226 L85.5039121,45.5095517" id="Fill-67" fill="#F9AB6D"></path>
            <path d="M52.6631703,230.543704 L51.9013681,293.794776 L51.8828022,295.427836 C51.8828022,295.427836 42.7561484,300.357037 40.1125989,299.648577 C38.7842363,299.294347 40.3389835,297.223002 42.2021648,295.253723 C44.0587582,293.302456 46.2243846,291.447251 46.2243846,291.447251 C46.2243846,291.447251 34.8877857,254.517271 34.8189121,249.389942 C34.7494396,244.076491 37.3995769,239.591579 37.6702802,238.907135 C37.9409835,238.228694 33.1407912,226.61115 33.1407912,226.61115 L52.6631703,230.543704" id="Fill-68" fill="#F9AB6D"></path>
            <path d="M76.2161538,290.672749 C76.6126264,291.705419 77.3935934,299.11423 75.5615549,299.666589 C73.7241264,300.230955 70.0606484,295.836101 69.9031374,294.473216 C69.8594176,294.106979 69.8779835,293.44655 69.9217033,292.672047 C70.0540604,290.558674 70.4128022,287.598752 70.4128022,287.598752 C70.4128022,287.598752 58.5671374,252.109708 58.2778681,248.189162 C58.0065659,244.568811 59.4606978,239.327407 59.743978,237.916491 C60.0212692,236.511579 56.9369286,230.033372 56.7919945,229.613099 L74.8758132,224.671891 C74.8758132,224.671891 72.5969945,235.779103 72.829967,236.481559 C73.0629396,237.172008 75.9460495,240.960468 77.2049396,246.159844 C78.7842418,252.686082 73.6486648,283.93037 73.6486648,283.93037 C73.6486648,283.93037 74.4667637,286.079766 75.1902363,287.983002 C75.6436044,289.171774 76.0592418,290.270487 76.2161538,290.672749" id="Fill-69" fill="#F9AB6D"></path>
            <path d="M38.6794286,139.602051 C38.6794286,139.602051 23.9811978,156.37214 22.9732473,174.428865 C21.9652967,192.485591 30.8266374,227.18152 30.8266374,227.18152 C30.8266374,227.18152 43.9569451,233.101365 53.5501429,233.101365 C63.1427418,233.101365 77.7715,229.252865 77.7715,229.252865 C77.7715,229.252865 87.3640989,179.007439 83.5269396,164.582472 C79.6903791,150.157505 71.7759011,141.262129 71.7759011,141.262129 L38.6794286,139.602051" id="Fill-70" fill="#42344C"></path>
            <path d="M59.3013901,81.3702378 C59.3013901,81.3702378 55.4043407,87.4455828 55.4043407,87.8556491 L50.6700275,80.9157427 L46.7951374,79.1722105 C46.7951374,79.1722105 41.7565824,79.9407096 38.6794286,81.2537622 L40.3898901,135.207797 C40.4300165,136.480624 41.6721374,139.792374 42.3441044,140.873076 C42.3441044,140.873076 53.4123956,144.784016 68.7598352,141.519696 C71.8681319,128.721185 72.9455549,82.8934269 72.9455549,82.8934269 C70.8038846,81.9736296 68.6622143,81.053232 66.5211429,80.1334347 C64.1147582,80.5459025 61.7077747,80.95777 59.3013901,81.3702378" id="Fill-71" fill="#9D7FAD"></path>
            <path d="M43.5449011,220.487173 C43.5449011,220.487173 26.3863846,219.304405 20.4758297,215.751899 C20.4758297,215.751899 16.6302857,178.201115 21.6598571,163.467548 C25.5808626,151.964678 37.5463077,137.647181 37.5463077,137.647181 L34.5122747,120.711384 C34.5122747,120.711384 28.7220989,113.354207 28.3879121,109.845528 C28.0609121,106.33745 27.286533,84.473653 27.4123022,84.4292242 C28.8724231,83.9242963 34.0277637,81.7851072 40.3222143,80.4600468 C40.9953791,80.3213567 41.6751319,80.1886706 42.3674615,80.069193 C42.3674615,80.069193 43.0597912,105.466285 43.4317088,126.920616 C43.4754286,129.261536 43.5131593,131.558027 43.5449011,133.766862 C43.8719011,156.21724 43.5449011,220.487173 43.5449011,220.487173" id="Fill-72" fill="#F4F0E9"></path>
            <path d="M68.893989,80.066191 C68.893989,80.066191 68.0471429,111.312281 67.7183462,133.765661 C67.3895495,156.219641 67.7183462,220.48117 67.7183462,220.48117 C67.7183462,220.48117 84.8780604,219.304405 90.7874176,215.750698 C90.7874176,215.750698 94.6293681,178.199914 89.6057857,163.469349 C85.6829835,151.96708 73.714544,137.647782 73.714544,137.647782 L76.7485769,120.710183 C76.7485769,120.710183 82.543544,113.352405 82.8735385,109.846129 C83.203533,106.340452 83.9767143,84.4742534 83.8521429,84.4310253 C82.2327143,83.8726628 76.0975714,81.3126004 68.893989,80.066191" id="Fill-73" fill="#F4F0E9"></path>
            <path d="M19.7685275,105.947197 C19.7685275,105.947197 14.6856538,104.384382 12.1175659,104.540483 C9.54887912,104.696585 3.56945055,107.792795 3.56945055,107.792795 C3.56945055,107.792795 9.28656044,109.344803 12.6475934,109.283563 C16.0092253,109.222324 19.7685275,105.947197 19.7685275,105.947197" id="Fill-74" fill="#E2D7C5"></path>
            <path d="M43.4317088,126.920616 C43.249044,126.604811 43.078956,126.283002 42.9088681,125.961193 C42.2794231,124.781427 41.7194505,123.563236 41.2223626,122.320429 C40.209022,119.815602 39.4346429,117.221918 38.8051978,114.597014 C37.5397198,109.366417 36.375456,104.24269 35.5004615,98.9292398 C36.4197747,98.1661442 37.338489,97.4090526 38.2637912,96.6513606 C38.8872473,96.134425 39.9383187,95.6799298 40.4354066,95.0867446 C40.0012033,94.8279766 35.0662582,92.4300195 35.0662582,92.3795867 C36.8222363,88.4044055 38.5722253,84.4352281 40.3222143,80.4600468 C40.9953791,80.3213567 41.6751319,80.1886706 42.3674615,80.069193 C42.3674615,80.069193 43.0597912,105.466285 43.4317088,126.920616" id="Fill-75" fill="#FCFAF8"></path>
            <path d="M67.7985989,126.920616 C67.9812637,126.604811 68.1507527,126.283002 68.3208407,125.961193 C68.9502857,124.781427 69.5102582,123.563236 70.0079451,122.320429 C71.0212857,119.815602 71.7956648,117.221918 72.4251099,114.597014 C73.689989,109.366417 74.8542527,104.24269 75.7292473,98.9292398 C74.810533,98.1661442 73.8912198,97.4090526 72.9659176,96.6513606 C72.3430604,96.134425 71.291989,95.6799298 70.7949011,95.0867446 C71.2291044,94.8279766 76.1634505,92.4300195 76.1634505,92.3795867 C74.4074725,88.4044055 72.6574835,84.4352281 70.9080934,80.4600468 C70.2343297,80.3213567 69.5545769,80.1886706 68.8622473,80.069193 C68.8622473,80.069193 68.1699176,105.466285 67.7985989,126.920616" id="Fill-76" fill="#FCFAF8"></path>
            <path d="M40.6743681,80.4522417 C42.1560495,78.6997037 43.6377308,76.9465653 45.1194121,75.1940273 C47.2119725,77.3590331 49.9687143,78.8702144 52.9159066,79.4676023 C52.0510934,82.2636179 51.1862802,85.0596335 50.321467,87.8556491 C46.7220714,85.9530136 43.4460824,83.4385809 40.6743681,80.4522417" id="Fill-77" fill="#BA9DD1"></path>
            <path d="M70.0840055,80.4522417 C68.6017253,78.6997037 67.120044,76.9465653 65.6383626,75.1940273 C63.5458022,77.3590331 60.7896593,78.8702144 57.842467,79.4676023 C58.7066813,82.2636179 59.5720934,85.0596335 60.4369066,87.8556491 C64.0357033,85.9530136 67.3122912,83.4385809 70.0840055,80.4522417" id="Fill-78" fill="#BA9DD1"></path>
            <path d="M15.7361264,109.785489 C15.7361264,109.785489 15.2144835,104.279914 15.3474396,103.845832 C15.5594505,103.157185 19.1025495,100.519673 17.658,96.2755166 C16.2134505,92.0313606 15.3139011,89.0276101 11.3863077,88.4350253 C9.19253297,88.1042105 7.29401648,91.2376452 5.02597802,91.6200936 C4.13181868,91.7707914 2.27941758,88.8468928 1.6918956,89.1194698 C1.10197802,89.3932476 0.614472527,89.1861131 0.516252747,89.589575 C0.0922307692,91.3379103 0.791747253,102.072881 3.17178022,103.21122 C5.26314286,104.21147 7.57130769,104.623337 7.70067033,105.125864 C7.83063187,105.62899 8.09594505,110.475337 8.09594505,110.475337 C8.09594505,110.475337 10.7742308,110.893809 11.7588242,110.806752 C12.7434176,110.719696 15.7361264,109.785489 15.7361264,109.785489" id="Fill-79" fill="#F9AB6D"></path>
            <path d="M28.1094231,84.4310253 C28.1094231,84.4310253 26.886467,85.1100663 25.3520824,88.4164133 C23.8182967,91.7227602 19.7685275,105.947197 19.7685275,105.947197 C19.7685275,105.947197 15.7648736,108.869294 12.9266813,109.253544 C10.0890879,109.638394 3.56945055,107.792795 3.56945055,107.792795 C3.56945055,107.792795 6.56096154,125.093029 7.63479121,131.398324 C8.70862088,137.703618 11.5462143,144.623712 12.3134066,145.238511 C13.08,145.85391 18.4491484,148.544858 20.9034451,147.930058 C23.3577418,147.314659 26.8098077,143.547212 27.2697637,142.086464 C27.7297198,140.625115 33.7127418,114.559189 33.7127418,114.559189 L28.1094231,84.4310253" id="Fill-80" fill="#F4F0E9"></path>
            <path d="M78.5704341,191.320234 C80.4557747,192.074924 82.7453736,191.694277 84.2863462,190.369817 C86.291467,188.646698 86.824489,185.782838 87.0275165,183.142924 C87.3958407,178.368023 87.0951923,173.541489 86.1381484,168.849442 C81.8362418,168.468195 77.5343352,168.086947 73.2318297,167.705099 C72.1669835,173.052772 72.2837692,178.633396 73.5726044,183.931236 C73.938533,185.434612 74.404478,186.931984 75.1968242,188.260047 C75.9891703,189.58871 77.1366648,190.746261 78.5704341,191.320234" id="Fill-81" fill="#FCFAF8"></path>
            <path d="M77.499,168.123571 C78.9130055,168.251454 83.7647033,168.639306 83.7647033,168.639306 C83.6952308,167.750129 83.0849505,165.881115 82.4267582,165.274121 C81.9787802,164.860452 81.3828736,164.494214 81.2924396,163.890222 C81.216978,163.384694 81.5349945,162.913388 81.8368407,162.50092 C82.6130165,161.441832 83.3891923,160.382144 84.165967,159.322456 C82.8627582,158.856554 81.5595495,158.391251 80.2563407,157.925349 C79.1196264,159.2366 77.983511,160.547852 76.8473956,161.858503 C75.9262857,162.921193 74.6632033,163.968873 74.3086538,165.390596 C74.0936484,166.253357 74.2763132,167.159945 74.4595769,168.030511 C74.7566319,169.442628 75.0530879,170.854745 75.3501429,172.267462 C75.4693242,172.83423 75.7735659,173.546292 76.3479121,173.486253 C76.7395934,173.445427 76.9809505,173.045567 77.1300769,172.68053 C77.717,171.248 77.8475604,169.63175 77.499,168.123571" id="Fill-82" fill="#F9AB6D"></path>
            <path d="M83.8521429,84.4310253 C86.1291648,85.4612943 87.435967,86.4441326 88.6613187,89.8009123 C89.8860714,93.157692 103.117593,131.63968 102.218643,136.716577 C101.320291,141.792873 85.4757637,163.244203 84.9044121,164.227041 C84.9044121,164.227041 81.1469066,163.326456 79.1867033,162.261965 C77.2265,161.197474 74.205044,155.711712 74.205044,155.711712 C74.205044,155.711712 88.0510385,134.259782 88.2337033,133.68701 C88.4157692,133.113637 81.065456,113.217918 80.3300055,111.416148 C79.5951538,109.614979 83.8521429,84.4310253 83.8521429,84.4310253" id="Fill-83" fill="#F4F0E9"></path>
            <path d="M32.639511,117.272351 C31.2171209,115.394331 29.7396319,113.379423 29.5348077,111.030097 C29.3749011,109.191103 30.0217143,107.388733 30.6583462,105.656608 C31.7842802,102.59522 32.9096154,99.5338324 34.0355495,96.4724444 C32.5826154,98.0820897 30.665533,99.2648577 28.5777637,99.8400312 C29.4216154,100.152234 30.265467,100.465037 31.1093187,100.77724 C30.3738681,102.481747 29.6390165,104.186253 28.9041648,105.89076 C28.2819066,107.332897 27.6476703,108.840476 27.7297198,110.409895 C27.8057802,111.861637 28.5005055,113.226324 29.4252088,114.346051 C30.3499121,115.465778 31.4998022,116.373567 32.639511,117.272351" id="Fill-84" fill="#E2D7C5"></path>
            <path d="M81.6074615,113.834519 C82.3668681,110.927431 81.9170934,108.418402 80.901956,105.656608 C79.7766209,102.59522 78.6512857,99.5338324 77.5253516,96.4724444 C78.9782857,98.0820897 80.8953681,99.2648577 82.9831374,99.8400312 C82.1392857,100.152234 81.2954341,100.465037 80.4515824,100.77724 C81.1864341,102.481747 81.9218846,104.186253 82.6567363,105.89076 C83.239467,107.241637 83.5886264,108.794246 83.3161264,110.271205 C83.0621923,111.647298 82.6597308,112.926729 81.6074615,113.834519" id="Fill-85" fill="#E2D7C5"></path>
            <path d="M32.6550824,191.320234 C30.7697418,192.074924 28.4807418,191.694277 26.9391703,190.369817 C24.9340495,188.646698 24.4016264,185.782838 24.198,183.142924 C23.8302747,178.368023 24.1303242,173.541489 25.0873681,168.849442 C29.3892747,168.468195 33.6911813,168.086947 37.9930879,167.705099 C39.0591319,173.052772 38.9417473,178.633396 37.6529121,183.931236 C37.2875824,185.434612 36.8210385,186.931984 36.0286923,188.260047 C35.2363462,189.58871 34.0888516,190.746261 32.6550824,191.320234" id="Fill-86" fill="#FCFAF8"></path>
            <path d="M25.064011,133.078815 C23.6721648,124.977754 22.2731319,116.847875 19.8050604,109.008585 C22.1689231,120.383571 24.5453626,131.899649 24.0686374,143.509388 C26.1857527,140.608304 25.6724945,136.621115 25.064011,133.078815" id="Fill-87" fill="#E2D7C5"></path>
            <path d="M74.3769286,156.21724 C74.3344066,156.919696 74.7602253,157.554308 75.167478,158.12708 C76.0340879,159.346472 76.9006978,160.565864 77.7673077,161.784655 C75.3609231,160.225442 73.2701593,158.178113 71.6585165,155.803571 C74.4338242,153.255517 76.8168516,150.314207 79.1885,147.384904 C77.7541319,149.88853 76.3197637,152.392156 74.8853956,154.895782 C74.6488297,155.30945 74.4056758,155.741731 74.3769286,156.21724" id="Fill-88" fill="#E2D7C5"></path>
            <path d="M55.6726484,141.6806 C54.6629011,124.326331 54.5515055,106.765528 55.341456,89.36623 C55.9277802,106.961856 55.9331703,124.365357 55.6726484,141.6806" id="Fill-89" fill="#7F6193"></path>
            <path d="M53.168044,94.9858791 C53.0865934,94.5692086 52.8841648,94.0480702 52.4607418,94.0606784 C52.0744505,94.0714854 51.8798077,94.5301832 51.8229121,94.9138324 C51.689956,95.8204211 51.805544,96.7630331 52.1553022,97.6101832 C52.6913187,97.5945731 53.1183352,97.104655 53.2465,96.5829162 C53.3740659,96.060577 53.2710549,95.5130214 53.168044,94.9858791" id="Fill-90" fill="#7F6193"></path>
            <path d="M53.168044,112.984967 C53.0865934,112.568296 52.8841648,112.047758 52.4607418,112.059766 C52.0744505,112.071173 51.8798077,112.529871 51.8229121,112.91292 C51.689956,113.820109 51.805544,114.762121 52.1553022,115.609271 C52.6913187,115.593661 53.1183352,115.104343 53.2465,114.582004 C53.3740659,114.060265 53.2710549,113.51271 53.168044,112.984967" id="Fill-91" fill="#7F6193"></path>
            <path d="M53.168044,130.984655 C53.0865934,130.567984 52.8841648,130.047446 52.4607418,130.059454 C52.0744505,130.070261 51.8798077,130.529559 51.8229121,130.912608 C51.689956,131.819197 51.805544,132.761809 52.1553022,133.608359 C52.6913187,133.593349 53.1183352,133.103431 53.2465,132.581692 C53.3740659,132.059353 53.2710549,131.511797 53.168044,130.984655" id="Fill-92" fill="#7F6193"></path>
            <path d="M49.1003077,119.230222 C53.6501593,116.325536 60.0733736,116.77883 64.1722527,120.294113 C58.4269945,118.847173 52.3601264,121.362207 46.4873022,120.585903 L49.1003077,119.230222" id="Fill-93" fill="#7F6193"></path>
            <path d="M12.6565769,106.311033 C11.6456319,106.741513 10.6346868,107.171392 9.62374176,107.601871 C9.20690659,105.65961 8.79007143,103.717949 8.37323626,101.775688 C9.47162088,101.490503 10.5700055,101.205318 11.668989,100.920133 C11.9983846,102.717099 12.3271813,104.514066 12.6565769,106.311033" id="Fill-94" fill="#42344C"></path>
            <path d="M7.96059341,101.951002 C5.07987912,101.790698 2.40638462,99.685731 1.56852198,96.9185341 C0.73006044,94.1507368 1.78532418,90.9110331 4.09109341,89.1723041 C6.39686264,87.433575 9.79382967,87.3158986 12.213989,88.8901209 C14.6341484,90.4649435 15.9104066,93.6235945 15.2653901,96.442425 C14.8659231,98.1907602 13.7783187,99.7709864 12.2900495,100.766433 C11.0239725,101.613583 9.4806044,102.036257 7.96059341,101.951002" id="Fill-95" fill="#BCBCBC"></path>
            <path d="M8.19536264,97.6876335 C7.04966484,97.6239922 5.98661538,96.7870487 5.65302747,95.6859337 C5.32003846,94.5854191 5.73926923,93.2969825 6.65618681,92.6059337 C7.5737033,91.9142846 8.92422527,91.8674542 9.88665934,92.4936608 C10.8490934,93.1198674 11.3569615,94.375883 11.1006319,95.4968109 C10.9413242,96.1920624 10.5089176,96.8206706 9.9172033,97.2163275 C9.41352747,97.5537466 8.79965385,97.7212554 8.19536264,97.6876335" id="Fill-96" fill="#9E9E9E"></path>
            <path d="M24.6699341,117.48669 C24.5166154,117.48669 24.3632967,117.483688 24.2093791,117.478285 C17.0549066,117.231524 12.5631484,113.386027 10.0723187,105.377427 C9.94954396,104.98177 10.1693407,104.560296 10.5646154,104.437216 C10.9610879,104.311135 11.378522,104.53448 11.5018956,104.930737 C13.8076648,112.345552 17.7424451,115.753365 24.2608846,115.978511 C30.2906209,116.189848 36.2107582,111.844226 37.7714945,106.094893 C38.6944011,102.696086 38.259,99.1093567 37.641533,95.1113606 L37.6091923,94.902425 C37.0312527,91.1649981 36.4341484,87.3002885 37.2690165,83.5268382 C38.0829231,79.8488499 40.7977418,75.7728031 45.0283791,74.9592749 C45.4314396,74.8788226 45.8267143,75.1471969 45.9039725,75.5548616 C45.9818297,75.9619259 45.7165165,76.3551813 45.3098626,76.433232 C41.7475989,77.1182768 39.4388352,80.6533723 38.731533,83.8516491 C37.9571538,87.3495205 38.5320989,91.072538 39.0890769,94.673076 L39.1208187,94.8814113 C39.7646374,99.0529201 40.2162088,102.805357 39.216044,106.488749 C37.5211538,112.735205 31.1901703,117.48669 24.6699341,117.48669" id="Fill-97" fill="#42344C"></path>
            <path d="M70.0840055,100.832476 C69.9869835,100.832476 69.8893626,100.813864 69.7947363,100.774238 C69.4132363,100.613934 69.2341648,100.174448 69.3940714,99.792 C70.6242143,96.8506901 71.2572527,93.6488109 71.2267088,90.5327875 C71.1680165,84.65377 68.8047527,78.8498012 64.7424066,74.6092476 C64.455533,74.3102534 64.4657143,73.8347446 64.7633681,73.5477583 C65.0622198,73.2595712 65.5353516,73.2703782 65.8216264,73.5687719 C70.1456923,78.0831033 72.6616758,84.2605146 72.7239615,90.5177778 C72.7569011,93.8361326 72.0825385,97.2439454 70.7745385,100.372577 C70.6547582,100.659563 70.3768681,100.832476 70.0840055,100.832476" id="Fill-98" fill="#42344C"></path>
            <path d="M67.7015769,101.303181 C66.647511,101.303181 65.5245714,101.787096 64.7747473,102.520172 C63.426022,103.838628 62.814544,105.801903 62.3545879,107.726752 C61.5322967,111.163384 61.0531758,114.648047 60.9184231,118.150121 C64.8693736,115.733552 68.0657088,112.080179 69.8073132,107.737559 C70.1606648,106.857388 70.5637253,105.696234 70.5463571,104.523072 C70.5301868,103.429162 70.110956,102.439119 69.4264121,101.876554 C68.9395055,101.477294 68.3334176,101.303181 67.7015769,101.303181 Z M60.5057802,127.362503 C60.1320659,127.362503 59.8086593,127.08152 59.7637418,126.699673 C59.5271758,124.691368 59.4002088,122.680663 59.3828407,120.672959 C57.3489725,121.625177 55.1749615,122.284405 52.9326758,122.595407 C52.532011,122.651244 52.1451209,122.365458 52.0888242,121.954191 C52.0319286,121.544125 52.3176044,121.165279 52.7278516,121.108242 C55.0599725,120.785232 57.3118407,120.059361 59.3948187,119.001474 C59.4798626,115.095337 59.9823407,111.207813 60.8986593,107.377326 C61.4107198,105.233333 62.1084396,103.031103 63.7296648,101.445474 C65.3844286,99.827423 68.3957033,99.0883431 70.3750714,100.7154 C71.4117692,101.567353 72.0202527,102.947049 72.0436099,104.500858 C72.0651703,105.941793 71.6022198,107.286667 71.1967637,108.298324 C69.2161978,113.234729 65.4772582,117.339595 60.8794945,119.906261 C60.8669176,122.110292 60.9902912,124.318526 61.2502143,126.523758 C61.2993242,126.935626 61.0052637,127.308468 60.5950165,127.357099 L60.5057802,127.362503 L60.5057802,127.362503 Z" id="Fill-99" fill="#BCBCBC"></path>
            <path d="M69.0197582,111.360912 C68.6071154,111.360912 68.2717308,111.025294 68.2711319,110.611626 C68.2699341,109.885154 68.2687363,109.134066 68.1106264,108.452023 C67.9531154,107.772382 67.6374945,107.219423 67.2200604,106.894012 C66.4965879,106.331446 65.4449176,106.396288 64.7016813,106.646051 C63.7404451,106.96786 62.8762308,107.627088 62.0413626,108.264101 C61.7131648,108.516865 61.2424286,108.452023 60.9926868,108.121809 C60.7417473,107.792195 60.8052308,107.321489 61.1346264,107.070526 C62.0233956,106.392086 63.0307473,105.622986 64.2267527,105.222526 C65.6659121,104.738612 67.1278297,104.921731 68.1387747,105.709442 C69.0203571,106.396889 69.4030549,107.395337 69.5689505,108.112203 C69.765989,108.959953 69.7671868,109.798097 69.7683846,110.609224 C69.7689835,111.023493 69.4347967,111.360312 69.020956,111.360912 L69.0197582,111.360912" id="Fill-100" fill="#BCBCBC"></path>
            <path d="M67.6758242,99.778191 C68.5047033,99.7001404 69.3587363,99.9300897 70.0366923,100.414004 C70.7152473,100.897918 71.2117363,101.630994 71.4093736,102.44152 C71.8154286,100.671571 71.7591319,98.7977544 71.249467,97.055423 C69.8654066,97.6612164 68.6292747,98.6038285 67.6758242,99.778191" id="Fill-101" fill="#42344C"></path>
            <path d="M50.4041154,121.033193 C49.9489505,121.22952 49.4764176,121.52191 49.3368736,121.99922 C49.1685824,122.577996 49.5926044,123.2 50.1405989,123.449162 C50.6885934,123.698324 51.3192363,123.663501 51.9175385,123.595057 C52.5368022,123.52361 53.2273352,123.375314 53.5633187,122.848772 C53.8549835,122.390074 53.7633516,121.749458 53.4183846,121.329786 C53.0740165,120.909513 52.5212308,120.697575 51.9792253,120.678963 C51.4372198,120.660351 50.9024011,120.817653 50.4041154,121.033193" id="Fill-102" fill="#42344C"></path>
            <path d="M59.4205714,126.844366 C59.4235659,127.247828 59.428956,127.658495 59.5523297,128.042144 C59.6757033,128.425793 59.9368242,128.786027 60.3129341,128.92832 C60.8465549,129.130651 61.4783956,128.823852 61.7718571,128.333934 C62.0653187,127.843415 62.0701099,127.225014 61.9281703,126.671454 C61.8053956,126.191743 61.5622418,125.719236 61.1495989,125.446058 C60.7375549,125.172881 60.1332637,125.156671 59.7787143,125.501895 C59.4385385,125.834511 59.416978,126.367657 59.4205714,126.844366" id="Fill-103" fill="#42344C"></path>
            <path d="M51.9013681,293.794776 L51.8828022,295.427836 C51.8828022,295.427836 42.7561484,300.357037 40.1125989,299.648577 C38.7842363,299.294347 40.3389835,297.223002 42.2021648,295.253723 C42.0823846,295.866121 42.2333077,296.550565 42.7309945,296.916803 C43.3472637,297.367096 44.2096813,297.180975 44.9403407,296.946823 C47.3694835,296.17232 49.7111868,295.10963 51.9013681,293.794776" id="Fill-104" fill="#42344C"></path>
            <path d="M75.5615549,299.666589 C73.7241264,300.230955 70.0606484,295.836101 69.9031374,294.473216 C69.8594176,294.106979 69.8779835,293.44655 69.9217033,292.672047 C70.3942363,293.488577 71.0051154,294.227057 71.716011,294.839454 C71.9867143,295.067602 72.2885604,295.29575 72.6413132,295.337778 C73.1324121,295.403821 73.6103352,295.097622 73.8936154,294.695361 C74.1768956,294.293099 74.3026648,293.80078 74.4098681,293.320468 C74.8063407,291.567329 75.0710549,289.778168 75.1902363,287.983002 C75.6436044,289.171774 76.0592418,290.270487 76.2161538,290.672749 C76.6126264,291.705419 77.3935934,299.11423 75.5615549,299.666589" id="Fill-105" fill="#42344C"></path>
            <path d="M12.9985495,90.4751501 C12.5014615,90.7723431 11.8492582,90.7261131 11.3371978,90.456538 C10.8245385,90.1863626 10.4388462,89.72046 10.1555659,89.2155322 C9.75130769,88.4950643 9.53270879,87.6184951 9.79682418,86.8355867 C10.0621374,86.0526784 10.9215604,85.4474854 11.7175,85.6678285 C12.2960385,85.8275322 12.6949066,86.3468694 13.0165165,86.8541988 C13.3782527,87.4251696 13.7058516,88.0429708 13.7699341,88.7160078 C13.8334176,89.3884444 13.5782857,90.1287251 12.9985495,90.4751501" id="Fill-106" fill="#F9AB6D"></path>
            <path d="M6.54778571,89.7528811 C6.01596154,89.1194698 5.68237363,88.275922 5.82551099,87.461193 C5.96864835,86.6464639 6.67535165,85.9139883 7.50243407,85.9055828 C7.78331868,85.9031813 8.06120879,85.9794308 8.31753846,86.0947057 C9.0452033,86.4225185 9.61475824,87.0829474 9.83275824,87.8502456 C10.0196154,88.5076725 9.94235714,89.2539571 9.55127473,89.8141209 C9.16019231,90.374885 8.43851648,90.7111033 7.77014286,90.5700117 C7.28143956,90.467345 6.8687967,90.1353294 6.54778571,89.7528811" id="Fill-107" fill="#F9AB6D"></path>
            <path d="M15.647489,103.396741 C15.8277582,103.178199 19.0210989,100.478846 18.9085055,98.5551969 C18.796511,96.6321481 16.9063791,88.6679766 15.7606813,88.5418947 C14.6155824,88.4152125 13.3447143,89.4460819 13.7010604,91.5708616 C14.0580055,93.6956413 14.6131868,96.7870487 14.4760385,97.1622924 C14.3382912,97.5369357 12.0894176,100.009942 12.2271648,101.419057 C12.3643132,102.828772 15.647489,103.396741 15.647489,103.396741" id="Fill-108" fill="#F9AB6D"></path>
            <path d="M5.81113736,90.5910253 C5.66500549,90.8780117 5.46257692,91.1553918 5.16851648,91.2868772 C4.85469231,91.426768 4.47978022,91.3763353 4.17434066,91.2190331 C3.8689011,91.061731 3.62335165,90.8083665 3.40774725,90.541193 C2.92862637,89.9456062 2.5609011,89.2287407 2.53095604,88.4650448 C2.50041209,87.7013489 2.86274725,86.894425 3.53950549,86.5395945 C4.21626374,86.1847641 5.18468681,86.4207173 5.5068956,87.1135673 C6.24534066,88.0928031 6.36811538,89.4983158 5.81113736,90.5910253" id="Fill-109" fill="#F9AB6D"></path>
            <path d="M0.489901099,89.7895049 C0.479120879,90.1353294 0.600697802,90.5363899 0.68693956,90.7669396 C0.894159341,91.3180975 1.16546154,91.8452398 1.49425824,92.3333567 C1.78891758,92.7710409 2.2321044,93.2201326 2.75314835,93.1420819 C3.10230769,93.0892476 3.3801978,92.7956569 3.50237363,92.4636413 C3.62454945,92.1322261 3.61556593,91.7671891 3.57783516,91.4153606 C3.52573077,90.9320468 3.41912637,90.4475322 3.18974725,90.0194542 C2.95976923,89.5907758 2.59623626,89.2209357 2.13987363,89.0540273 C1.6877033,88.8883197 1.09479121,88.9567641 0.707302198,89.2587602 C0.555181319,89.3764366 0.496489011,89.5721637 0.489901099,89.7895049" id="Fill-110" fill="#F9AB6D"></path>
        </g>
    </g>
</svg>