<?xml version="1.0" encoding="UTF-8"?>
<svg width="182px" height="53px" viewBox="0 0 182 53" version="1.1" xmlns="http://www.w3.org/2000/svg" xmlns:xlink="http://www.w3.org/1999/xlink">
    <!-- Generator: Sketch 43.2 (39069) - http://www.bohemiancoding.com/sketch -->
    <title>Slice</title>
    <desc>Created with Sketch.</desc>
    <defs></defs>
    <g id="Page-1-Annotations" stroke="none" stroke-width="1" fill="none" fill-rule="evenodd">
        <g id="Group-3" fill-rule="nonzero">
            <g id="Group-2">
                <g id="Group" fill="#9478B3">
                    <path d="M43.3918919,0.189884892 L9.83092793,0.189884892 C4.56261937,0.189884892 0.252358108,4.50766906 0.252358108,9.78517266 L0.252358108,43.4047122 C0.252358108,48.6822158 4.56261937,53 9.83092793,53 L43.3918919,53 C48.6602005,53 52.9704617,48.6822158 52.9704617,43.4047122 L52.9704617,9.78517266 C52.9704617,4.50766906 48.6602005,0.189884892 43.3918919,0.189884892" id="Shape"></path>
                </g>
                <g id="Group" transform="translate(31.753980, 19.006897)" fill="#FFFFFF">
                    <path d="M7.91200392,0.180363853 C7.16450793,0.180363853 6.44979024,0.4121522 5.84847794,0.826195006 C5.24791917,0.4121522 4.53282472,0.180363853 3.78532873,0.180363853 C1.73197533,0.180363853 0.0610354588,1.91026873 0.0610354588,4.03606659 C0.0610354588,4.36578835 0.101725765,4.69399762 0.181599328,5.0116195 C0.278427185,5.40826873 1.05418033,8.0263805 5.13941169,10.5306778 L5.84847794,10.9655172 L6.55792096,10.5306778 C10.6427756,8.02675862 11.4189055,5.40864685 11.5153566,5.0116195 C11.5956069,4.69399762 11.6362972,4.36578835 11.6362972,4.03606659 C11.6362972,1.91026873 9.96535731,0.180363853 7.91200392,0.180363853 M7.91200392,1.54651605 C9.2171078,1.54651605 10.2750558,2.6612176 10.2750558,4.03606659 C10.2750558,4.25991439 10.2467986,4.476956 10.1944287,4.6830321 C10.1944287,4.6830321 9.66131031,7.02814031 5.84847794,9.36492985 C2.0363991,7.02814031 1.50290398,4.6830321 1.50290398,4.6830321 C1.45053405,4.476956 1.42190013,4.25991439 1.42190013,4.03606659 C1.42190013,2.6612176 2.48022485,1.54651605 3.78532873,1.54651605 C4.67184993,1.54651605 5.44421222,2.06113912 5.84847794,2.82191914 C6.25312043,2.06113912 7.02510595,1.54651605 7.91200392,1.54651605" id="Shape"></path>
                </g>
                <g id="Group" transform="translate(9.124707, 13.158621)" fill="#FFFFFF">
                    <path d="M9.1247069,12.9616173 C9.3889432,12.9616173 9.6242846,12.9507145 9.88319816,12.9277809 C14.4862326,12.5792654 18.1243293,8.76740099 18.1243293,4.12767133 L18.1243293,0.679360788 C18.1243293,0.304152118 17.8167506,0 17.4373149,0 L14.6903979,0 C14.3113424,0 14.0037637,0.304152118 14.0037637,0.679360788 C14.0037637,1.0541935 14.3113424,1.35834562 14.6903979,1.35834562 L16.7510609,1.35834562 L16.7510609,4.12767133 C16.7510609,8.24707153 13.3619927,11.5983842 9.19618377,11.5983842 C5.03037487,11.5983842 1.64168685,8.24707153 1.64168685,4.12767133 L1.64168685,1.7200197 L3.70196963,1.7200197 C4.08140536,1.7200197 4.38898402,1.41586759 4.38898402,1.04065892 C4.38898402,0.665450246 4.08140536,0.361674089 3.70196963,0.361674089 L0.955052655,0.361674089 C0.575997123,0.361674089 0.268418461,0.665450246 0.268418461,1.04065892 L0.268418461,4.12767133 C0.268418461,8.76364138 3.9011924,12.573626 8.49928428,12.926653 C8.70573077,12.9431953 8.91407825,12.9616173 9.1247069,12.9616173" id="Shape"></path>
                </g>
                <g id="Group" transform="translate(17.519437, 27.048276)" fill="#FFFFFF">
                    <path d="M20.0478106,4.53402637 L19.3355459,4.10131846 C19.3185242,4.09078296 19.303772,4.08062373 19.2871286,4.0704645 C18.5790248,8.2425213 14.9231363,11.4313905 10.5307745,11.4313905 C5.63305651,11.4313905 1.64808133,7.46740974 1.64808133,2.59549493 L1.64808133,0.0214472617 C1.39880761,0.0432707911 1.14802085,0.058321501 0.893451483,0.058321501 C0.687299468,0.058321501 0.483795278,0.0481622718 0.281425869,0.0338640974 L0.281425869,2.59549493 C0.281425869,8.21731136 4.87918318,12.7904696 10.5307745,12.7904696 C15.6459922,12.7904696 19.8980194,9.04321907 20.6583231,4.16302637 L20.0478106,4.53402637 Z" id="Shape"></path>
                </g>
            </g>
            <g id="Group" transform="translate(65.175676, 15.612403)" fill="#4E5567">
                <path d="M0,2.21492446 C0,1.52573215 0.194297297,1.039571 0.583711712,0.756869372 C0.972306306,0.474167739 1.48838288,0.332388587 2.13112162,0.332388587 C2.58776126,0.332388587 3.00218018,0.390213921 3.37437838,0.504579581 C3.74657658,0.619801913 3.9835045,0.695189015 4.08516216,0.730312552 L4.08516216,19.8726398 L0,19.8726398 L0,2.21492446 Z" id="Shape"></path>
            </g>
            <g id="Group" transform="translate(71.734234, 21.775194)" fill="#4E5567">
                <path d="M7.78828829,10.3505278 C8.23438413,10.3505278 8.64975951,10.2680552 9.03398173,10.1018411 C9.41777127,9.93647287 9.75223498,9.70935591 10.0382382,9.42133607 C10.3233761,9.13331623 10.5423136,8.78904583 10.6941852,8.38725604 C10.8456241,7.98588919 10.9217763,7.5494186 10.9217763,7.07826721 C10.9217763,6.60711582 10.8456241,6.17106817 10.6941852,5.76927839 C10.5423136,5.36791154 10.3233761,5.02321819 10.0382382,4.73519836 C9.75223498,4.44717852 9.41777127,4.2204845 9.03398173,4.05469334 C8.64975951,3.88890219 8.23438413,3.80600661 7.78828829,3.80600661 C7.32401977,3.80600661 6.90475025,3.88890219 6.52961436,4.05469334 C6.15491116,4.2204845 5.82434159,4.44717852 5.53877102,4.73519836 C5.25320045,5.02321819 5.03426301,5.36791154 4.88239139,5.76927839 C4.73095245,6.17106817 4.65523298,6.60711582 4.65523298,7.07826721 C4.65523298,7.5494186 4.73095245,7.98588919 4.88239139,8.38725604 C5.03426301,8.78904583 5.25320045,9.13331623 5.53877102,9.42133607 C5.82434159,9.70935591 6.15491116,9.93647287 6.52961436,10.1018411 C6.90475025,10.2680552 7.32401977,10.3505278 7.78828829,10.3505278 M0.235812062,7.07826721 C0.235812062,6.06617989 0.43225,5.13233584 0.825125876,4.277158 C1.21756907,3.4224031 1.75755706,2.68014934 2.44552252,2.05208846 C3.13262262,1.42360465 3.93178754,0.930883493 4.8421519,0.572656179 C5.75294895,0.215274738 6.73470596,0.036372549 7.78828829,0.036372549 C8.82413063,0.036372549 9.80112813,0.215274738 10.7210115,0.572656179 C11.6404622,0.930883493 12.443954,1.42360465 13.1314867,2.05208846 C13.8185868,2.68014934 14.3590075,3.4224031 14.7518834,4.277158 C15.1443266,5.13233584 15.3407645,6.06617989 15.3407645,7.07826721 C15.3407645,8.09077747 15.1443266,9.02462152 14.7518834,9.87937642 C14.3590075,10.7345543 13.8185868,11.4763851 13.1314867,12.104446 C12.443954,12.7329298 11.6404622,13.2260739 10.7210115,13.5838782 C9.80112813,13.9412597 8.82413063,14.1205848 7.78828829,14.1205848 C6.73470596,14.1205848 5.75294895,13.9412597 4.8421519,13.5838782 C3.93178754,13.2260739 3.13262262,12.7329298 2.44552252,12.104446 C1.75755706,11.4763851 1.21756907,10.7345543 0.825125876,9.87937642 C0.43225,9.02462152 0.235812062,8.09077747 0.235812062,7.07826721" id="Shape"></path>
            </g>
            <g id="Group" transform="translate(88.540541, 21.364341)" fill="#4E5567">
                <path d="M12.7072072,12.7388509 C12.5144812,12.8615025 12.2611842,13.0099533 11.9468926,13.1837802 C11.6321775,13.358453 11.2518084,13.5242442 10.806209,13.6815766 C10.3606096,13.8384861 9.84935631,13.9734029 9.2724491,14.0871728 C8.69554189,14.2005198 8.05721652,14.2571933 7.35874369,14.2571933 C6.41502177,14.2571933 5.50095,14.1087426 4.61864625,13.812264 C3.73591892,13.5157855 2.96247357,13.0750855 2.29873378,12.4901642 C1.63372327,11.9056658 1.10129129,11.1727166 0.698896396,10.2913167 C0.296925075,9.40991678 0.0961512012,8.38471842 0.0961512012,7.21529868 C0.0961512012,6.09832307 0.292689339,5.09934679 0.686189189,4.21794688 C1.07926547,3.33654697 1.61254459,2.59894551 2.285603,2.00556544 C2.95781426,1.4126083 3.74481396,0.958374373 4.64490781,0.644132467 C5.54500165,0.330313497 6.50227793,0.173404013 7.51588949,0.173404013 C8.44224489,0.173404013 9.31184144,0.290980392 10.1242556,0.526556088 C10.9370932,0.762131783 11.5444977,1.08102599 11.9468926,1.4819699 C12.1387715,1.67440606 12.2916815,1.87910739 12.4056228,2.09734268 C12.5191405,2.31557798 12.5758994,2.57272344 12.5758994,2.86962494 C12.5758994,3.16652645 12.5233763,3.43678295 12.41833,3.68081737 C12.3137074,3.92569767 12.1828231,4.14351003 12.0256773,4.33552326 C11.868108,4.52753648 11.7063029,4.69797994 11.540262,4.84600775 C11.3742212,4.9944585 11.2297826,5.10357615 11.1077934,5.17336069 C10.7930782,4.85911879 10.3559503,4.56686959 9.79683318,4.29619015 C9.23729249,4.02593365 8.57312913,3.89059394 7.80434309,3.89059394 C7.34984865,3.89059394 6.91695646,3.96037848 6.50651366,4.09994756 C6.0956473,4.23993958 5.73730405,4.44929321 5.43148393,4.72843137 C5.12566381,5.00756954 4.88083829,5.35649225 4.69743093,5.77562244 C4.5136,6.19432969 4.42210811,6.67436275 4.42210811,7.21529868 C4.42210811,7.79133835 4.5136,8.28448244 4.69743093,8.69430803 C4.88083829,9.10455654 5.12566381,9.44036822 5.43148393,9.70216598 C5.73730405,9.96396375 6.09988303,10.1563999 6.51964444,10.2782057 C6.93898228,10.4004343 7.38500526,10.4613372 7.85686622,10.4613372 C8.25841396,10.4613372 8.63031156,10.4220041 8.97128829,10.3433379 C9.31184144,10.2650946 9.61300225,10.1733174 9.87519429,10.068852 C10.1378099,9.96396375 10.3559503,9.86372777 10.5308862,9.76772116 C10.7053985,9.67213748 10.8193398,9.5972777 10.8718629,9.5452565 L12.7072072,12.7388509 Z" id="Shape"></path>
            </g>
            <g id="Group" transform="translate(102.887387, 21.775194)" fill="#4E5567">
                <path d="M4.22719595,7.29689359 C4.22719595,9.11370918 5.04642652,10.0216937 6.68657855,10.0216937 C8.32588514,10.0216937 9.14638387,9.11370918 9.14638387,7.29689359 L9.14638387,2.03058351 C9.14638387,1.34906601 9.34633024,0.868617336 9.74833657,0.589237491 C10.1490747,0.310280949 10.6812787,0.170167724 11.344103,0.170167724 C11.8150127,0.170167724 12.2423822,0.226890298 12.6262116,0.340335447 C13.0096182,0.454203899 13.2539502,0.528281889 13.3587846,0.562992718 L13.3587846,8.08296688 C13.3587846,9.06121964 13.1884286,9.91290486 12.8485621,10.6375992 C12.5082728,11.3622936 12.0411677,11.9650768 11.4485148,12.4455255 C10.8554392,12.9259742 10.1490747,13.2883214 9.32899873,13.5325671 C8.50934544,13.7772361 7.62882052,13.8995706 6.68657855,13.8995706 C5.74475929,13.8995706 4.86381166,13.7772361 4.04373564,13.5325671 C3.22365963,13.2883214 2.51729519,12.9259742 1.92464231,12.4455255 C1.331144,11.9650768 0.864884291,11.3622936 0.524595017,10.6375992 C0.184728463,9.91290486 0.0143724662,9.06121964 0.0143724662,8.08296688 L0.0143724662,2.03058351 C0.0143724662,1.34906601 0.214741554,0.868617336 0.616325169,0.589237491 C1.01706334,0.310280949 1.54926731,0.170167724 2.21209164,0.170167724 C2.68342399,0.170167724 3.11037078,0.226890298 3.49462289,0.340335447 C3.87802956,0.454203899 4.12236149,0.528281889 4.22719595,0.562992718 L4.22719595,7.29689359 Z" id="Shape"></path>
            </g>
            <g id="Group" transform="translate(119.283784, 21.364341)" fill="#4E5567">
                <path d="M0,5.47872093 C0,4.62396603 0.153354531,3.8774829 0.461341547,3.24054036 C0.768902579,2.60359781 1.19062754,2.06689124 1.7273684,1.63042066 C2.2628313,1.19437301 2.89584473,0.867020064 3.6255567,0.64878477 C4.3548427,0.430549476 5.15058232,0.321431829 6.01149762,0.321431829 C7.06666199,0.321431829 8.00681046,0.496104651 8.832795,0.84502736 C9.65920553,1.19437301 10.3267237,1.68244186 10.8366275,2.31092567 C11.3469573,1.68244186 12.0059558,1.19437301 12.814475,0.84502736 C13.6225682,0.496104651 14.5546229,0.321431829 15.6097873,0.321431829 C16.4532372,0.321431829 17.2400312,0.430549476 17.9697432,0.64878477 C18.6990291,0.867020064 19.3316166,1.19437301 19.8679315,1.63042066 C20.4038203,2.06689124 20.8259713,2.60359781 21.1335323,3.24054036 C21.4406674,3.8774829 21.5948739,4.62396603 21.5948739,5.47872093 L21.5948739,14.038958 L17.3499353,14.038958 L17.3499353,6.68282148 C17.3499353,5.79296284 17.1650579,5.15602029 16.796155,4.77199384 C16.4272522,4.3879674 15.9084027,4.19595417 15.2400325,4.19595417 C14.5546229,4.19595417 13.9965828,4.4226482 13.5663382,4.87645919 C13.1352416,5.33027018 12.9201192,6.05433767 12.9201192,7.04908459 L12.9201192,14.038958 L8.67475464,14.038958 L8.67475464,7.04908459 C8.67475464,6.05433767 8.46389216,5.33027018 8.0421672,4.87645919 C7.62044224,4.4226482 7.06666199,4.19595417 6.38082644,4.19595417 C5.71245628,4.19595417 5.1901989,4.3879674 4.81192439,4.77199384 C4.43364989,5.15602029 4.2453646,5.79296284 4.2453646,6.68282148 L4.2453646,14.038958 L0,14.038958 L0,5.47872093 Z" id="Shape"></path>
            </g>
            <g id="Group" transform="translate(143.878378, 18.899225)" fill="#4E5567">
                <path d="M2.15202703,5.29052033 L2.15202703,13.0250732 C2.15202703,14.0213008 2.40940946,14.7232276 2.92460473,15.1321463 C3.43936959,15.5414959 4.11424527,15.7457398 4.94923176,15.7457398 C5.48207365,15.7457398 5.97919189,15.6569756 6.4414473,15.4790163 C6.90284189,15.3010569 7.25792635,15.1321463 7.50670068,14.9722846 L8.27927838,16.1188943 C8.17296824,16.2080894 8.00812297,16.3145203 7.78646419,16.4390488 C7.564375,16.5635772 7.29795405,16.6881057 6.98720135,16.8122033 C6.67644865,16.9367317 6.31232568,17.0392846 5.89483243,17.119 C5.47776959,17.1991463 5.02024865,17.2392195 4.52313041,17.2392195 C3.81210068,17.2392195 3.20006419,17.1409756 2.68486892,16.9457805 C2.16967365,16.7501545 1.74314189,16.479122 1.40613446,16.132252 C1.06826622,15.7853821 0.815618243,15.3721545 0.646899324,14.8921382 C0.47775,14.412122 0.393820946,13.8877236 0.393820946,13.3185122 L0.393820946,1.02294309 C0.393820946,0.756219512 0.469141892,0.538617886 0.619783784,0.369707317 C0.770856081,0.200796748 1.01489595,0.116341463 1.35276419,0.116341463 C1.512875,0.116341463 1.66782095,0.138747967 1.81932365,0.182699187 C1.96953514,0.227512195 2.08101014,0.267585366 2.15202703,0.302918699 L2.15202703,3.69017886 L6.84086351,3.69017886 C7.214025,3.69017886 7.47097703,3.77463415 7.61301081,3.94354472 C7.755475,4.11288618 7.8269223,4.32143902 7.8269223,4.57049593 C7.8269223,4.71269106 7.80884527,4.84626829 7.77355203,4.97036585 C7.73782838,5.09489431 7.70210473,5.2017561 7.66681149,5.29052033 L2.15202703,5.29052033 Z" id="Shape"></path>
            </g>
            <g id="Group" transform="translate(152.486486, 21.775194)" fill="#4E5567">
                <path d="M10.5893393,7.29647028 C10.4321935,7.26175946 10.0162443,7.19149119 9.34403303,7.0869354 C8.67097462,6.98195631 7.67896532,6.92989006 6.36800511,6.92989006 C5.72120826,6.92989006 5.13582958,6.97349025 4.61186907,7.06069063 C4.08706141,7.14831431 3.63722628,7.30112661 3.26109294,7.51912755 C2.88538318,7.7379751 2.59692958,8.03005403 2.39615571,8.39705755 C2.19495826,8.76363777 2.09457132,9.21826498 2.09457132,9.75924595 C2.09457132,10.7027879 2.46562177,11.3970045 3.20899339,11.842319 C3.95151787,12.2880568 5.1883527,12.5107141 6.91865075,12.5107141 C8.05509865,12.5107141 8.90266937,12.4628809 9.46178649,12.3667912 C10.0209036,12.2707014 10.3966134,12.1962001 10.5893393,12.1437106 L10.5893393,7.29647028 Z M5.76483634,1.63691191 C4.78595781,1.63691191 3.99091021,1.75924642 3.37969354,2.00391543 C2.76720616,2.24858445 2.34786832,2.47547475 2.12083288,2.68500963 C1.99842012,2.59780926 1.88913814,2.47547475 1.79298694,2.31842941 C1.69683574,2.16096077 1.64897192,1.98698332 1.64897192,1.79438055 C1.64897192,1.60220108 1.69683574,1.43626638 1.79298694,1.29657646 C1.88913814,1.15688654 2.00689159,1.03455203 2.14709444,0.929572939 C2.32118318,0.789883016 2.70621156,0.632837679 3.30048529,0.458013625 C3.89433544,0.283612873 4.69912523,0.195989194 5.71273679,0.195989194 C7.79248303,0.195989194 9.40968694,0.624371623 10.5630778,1.47986657 C11.7164686,2.33578482 12.2933758,3.71617524 12.2933758,5.61976791 L12.2933758,13.4538327 C11.7863583,13.5410331 11.0569646,13.6328898 10.103924,13.7289796 C9.15130706,13.824646 8.07246517,13.8733258 6.8665512,13.8733258 C5.46748769,13.8733258 4.34501772,13.750568 3.497447,13.5063223 C2.6494527,13.2620766 1.98952508,12.9429063 1.51766411,12.5500813 C1.04622673,12.156833 0.731511562,11.7157515 0.573942192,11.2268367 C0.416372823,10.737922 0.338011712,10.248584 0.338011712,9.75924595 C0.338011712,9.1306413 0.433739339,8.55875922 0.626465315,8.04317642 C0.818767718,7.52844022 1.14619009,7.0869354 1.60957958,6.72035518 C2.0725455,6.35335166 2.69774009,6.06508245 3.48431622,5.85554757 C4.27089234,5.64601268 5.25781877,5.54103359 6.44678979,5.54103359 C6.83097102,5.54103359 7.23336592,5.55415598 7.65270375,5.58040075 C8.07246517,5.60664553 8.46977718,5.6328903 8.84591051,5.65913507 C9.22162027,5.68495654 9.56217342,5.71585765 9.86841712,5.75056848 C10.1742372,5.78612591 10.4144035,5.81194738 10.5893393,5.8293028 L10.5893393,5.67225746 C10.5893393,4.86882875 10.4537958,4.20466667 10.1827087,3.68061781 C9.91162162,3.15656895 9.55370195,2.74215551 9.10810255,2.43610759 C8.66207958,2.13090627 8.15082628,1.92137139 7.57434264,1.80750294 C6.99743544,1.69405779 6.39469024,1.63691191 5.76483634,1.63691191 L5.76483634,1.63691191 Z" id="Shape"></path>
            </g>
            <g id="Group" transform="translate(167.653153, 21.775194)" fill="#4E5567">
                <path d="M12.2370164,7.07478329 C12.2370164,6.33113075 12.1197099,5.62695659 11.8842528,4.96311904 C11.6492177,4.29928148 11.3099569,3.72384117 10.8656267,3.23679811 C10.4217183,2.74975504 9.89004107,2.36484083 9.27270469,2.08119724 C8.65452438,1.79841189 7.95363871,1.65637554 7.17004769,1.65637554 C6.40375729,1.65637554 5.71131094,1.79369165 5.0935526,2.06789475 C4.47495032,2.34295607 3.94833665,2.71885891 3.51328961,3.19689061 C3.07782061,3.67492231 2.73813792,4.24607149 2.49466349,4.90990904 C2.25076709,5.57417571 2.12924086,6.2959435 2.12924086,7.07478329 C2.12924086,7.81843583 2.25076709,8.52260999 2.49466349,9.18644755 C2.73813792,9.8502851 3.08246224,10.4261545 3.52637056,10.9127685 C3.97027888,11.4002407 4.50153418,11.789446 5.11971449,12.0812427 C5.73789481,12.3738977 6.4210579,12.519796 7.17004769,12.519796 C7.95363871,12.519796 8.65452438,12.382909 9.27270469,12.1078477 C9.89004107,11.8336446 10.4217183,11.4487304 10.8656267,10.952676 C11.3099569,10.4570506 11.6492177,9.88161034 11.8842528,9.22635504 C12.1197099,8.57109974 12.2370164,7.8540522 12.2370164,7.07478329 L12.2370164,7.07478329 Z M0.378925543,7.71201585 C0.378925543,7.28719414 0.392428458,6.9112913 0.418168389,6.5834491 C0.444752252,6.256036 0.474711844,5.96810129 0.509735029,5.72007407 C0.666284446,4.85283704 0.93634274,4.07313902 1.31948794,3.38269647 C1.70221118,2.69225392 2.18156465,2.10780224 2.75586049,1.62977054 C3.3305783,1.15173885 3.99222112,0.78441826 4.74078895,0.527379673 C5.48935678,0.271199311 6.2991097,0.142465461 7.17004769,0.142465461 C8.17981253,0.142465461 9.11151365,0.323980189 9.96472907,0.687009647 C10.8179445,1.0500391 11.5487897,1.54609354 12.1585307,2.17431473 C12.7678498,2.80296503 13.2425616,3.53803531 13.5822443,4.37866736 C13.921505,5.22015762 14.0915574,6.11829078 14.0915574,7.07478329 C14.0915574,8.04886942 13.921505,8.95644307 13.5822443,9.79707511 C13.2425616,10.6385654 12.7678498,11.3736357 12.1585307,12.0018568 C11.5487897,12.6305071 10.8179445,13.1218413 9.96472907,13.4758594 C9.11151365,13.8298775 8.17981253,14.0071011 7.17004769,14.0071011 C6.05563527,14.0071011 5.05473172,13.7723764 4.16649311,13.3033561 C3.27867647,12.8343357 2.59044979,12.2189879 2.102657,11.4573127 L2.102657,18.9474772 L0.378925543,18.9474772 L0.378925543,7.71201585 Z" id="Shape"></path>
            </g>
        </g>
    </g>
</svg>