<?xml version="1.0" encoding="UTF-8"?>
<svg width="531px" height="53px" viewBox="0 0 531 53" version="1.1" xmlns="http://www.w3.org/2000/svg" xmlns:xlink="http://www.w3.org/1999/xlink">
    <!-- Generator: Sketch 52.2 (67145) - http://www.bohemiancoding.com/sketch -->
    <title>Patchwork logo</title>
    <desc>Created with Sketch.</desc>
    <g id="Final-Horizontal" stroke="none" stroke-width="1" fill="none" fill-rule="evenodd">
        <g id="Group-6-Copy-15" transform="translate(26.500000, 26.500000) rotate(-360.000000) translate(-26.500000, -26.500000) ">
            <path d="M38.8951613,39.3225806 L38.8951613,26.9274194 L46.86128,26.9274194 C50.2516014,26.9274194 53,29.6758179 53,33.0661394 L53,33.1838606 C53,36.5741821 50.2516014,39.3225806 46.86128,39.3225806 L38.8951613,39.3225806 Z" id="Combined-Shape-Copy-7" fill="#27C0D5"></path>
            <rect id="Rectangle-Copy-27" fill="#556C7C" x="26.5" y="0" width="12.3951613" height="53" rx="6.13872"></rect>
            <rect id="Rectangle-Copy-28" fill="#F78F62" transform="translate(26.500000, 20.729839) rotate(90.000000) translate(-26.500000, -20.729839) " x="20.3024194" y="-5.77016129" width="12.3951613" height="53" rx="6.13872"></rect>
            <rect id="Rectangle-Copy-29" fill="#F8C93E" x="14.1048387" y="0" width="12.3951613" height="53" rx="6.13872"></rect>
            <path d="M16.0870865,39.3225806 L6.13872,39.3225806 C2.74839856,39.3225806 7.10542736e-15,36.5741821 7.10542736e-15,33.1838606 L7.10542736e-15,33.0661394 C7.10542736e-15,29.6758179 2.74839856,26.9274194 6.13872,26.9274194 L16.0870865,26.9274194 L26.5,26.9274194 L26.5,39.3225806 L16.0870865,39.3225806 Z" id="Combined-Shape-Copy-8" fill="#27C0D5"></path>
        </g>
        <path d="M83,47.6379615 L83,6.78943688 C83,6.17238968 83.4936378,5.6170472 84.1723897,5.6170472 L99.0432272,5.6170472 C106.632908,5.6170472 112.865084,11.7875192 112.865084,19.2537903 C112.865084,26.9051756 106.632908,33.1373523 99.1049319,33.1373523 L92.6259363,33.1373523 L92.6259363,47.6379615 C92.6259363,48.2550087 92.0705938,48.8103512 91.4535466,48.8103512 L84.1723897,48.8103512 C83.4936378,48.8103512 83,48.2550087 83,47.6379615 Z M92.6259363,24.1284632 L98.4878847,24.1284632 C101.141188,24.1284632 103.362558,22.0305027 103.362558,19.2537903 C103.362558,16.6621921 101.141188,14.687641 98.4878847,14.687641 L92.6259363,14.687641 L92.6259363,24.1284632 Z M121.601447,48.8103512 C120.675876,48.8103512 120.182239,48.0081898 120.552467,47.2060285 L139.866044,5.67875192 C140.051158,5.3085236 140.483091,5 140.915024,5 L141.532072,5 C141.964005,5 142.395938,5.3085236 142.581052,5.67875192 L161.894629,47.2060285 C162.264858,48.0081898 161.77122,48.8103512 160.845649,48.8103512 L153.996425,48.8103512 C152.88574,48.8103512 152.392102,48.4401229 151.83676,47.2677332 L149.61539,42.3930603 L132.831706,42.3930603 L130.610336,47.3294379 C130.301813,48.0698946 129.623061,48.8103512 128.388966,48.8103512 L121.601447,48.8103512 Z M136.533989,34.0012184 L145.913107,34.0012184 L141.223548,23.8199396 L141.161843,23.8199396 L136.533989,34.0012184 Z M179.516472,47.6379615 L179.516472,14.687641 L170.692697,14.687641 C170.013945,14.687641 169.520307,14.1322986 169.520307,13.5152514 L169.520307,6.78943688 C169.520307,6.17238968 170.013945,5.6170472 170.692697,5.6170472 L198.089592,5.6170472 C198.768344,5.6170472 199.261982,6.17238968 199.261982,6.78943688 L199.261982,13.5152514 C199.261982,14.1322986 198.768344,14.687641 198.089592,14.687641 L189.265817,14.687641 L189.265817,47.6379615 C189.265817,48.2550087 188.710475,48.8103512 188.093428,48.8103512 L180.688861,48.8103512 C180.071814,48.8103512 179.516472,48.2550087 179.516472,47.6379615 Z M211.268695,27.2754039 C211.268695,14.9344599 221.203155,5 233.544099,5 C239.714571,5 244.28072,6.91284632 248.476641,10.738539 C249.031983,11.2321767 249.031983,11.9726334 248.538346,12.4662711 L243.725378,17.4643534 C243.293444,17.8962865 242.614693,17.8962865 242.18276,17.4643534 C239.899685,15.4280977 236.876154,14.3174127 233.852622,14.3174127 C226.879989,14.3174127 221.758497,20.1176564 221.758497,27.028585 C221.758497,33.877809 226.941694,39.5546432 233.914327,39.5546432 C236.814449,39.5546432 239.96139,38.505663 242.18276,36.5928166 C242.614693,36.2225883 243.416854,36.2225883 243.787082,36.6545214 L248.60005,41.7760131 C249.031983,42.2079462 248.970279,43.0101075 248.538346,43.4420406 C244.342425,47.5145521 239.035819,49.4273984 233.544099,49.4273984 C221.203155,49.4273984 211.268695,39.6163479 211.268695,27.2754039 Z M265.172912,47.6379615 L265.172912,6.78943688 C265.172912,6.17238968 265.728255,5.6170472 266.345302,5.6170472 L273.688164,5.6170472 C274.366916,5.6170472 274.860554,6.17238968 274.860554,6.78943688 L274.860554,22.3390263 L292.508103,22.3390263 L292.508103,6.78943688 C292.508103,6.17238968 293.001741,5.6170472 293.680493,5.6170472 L301.023355,5.6170472 C301.640402,5.6170472 302.195744,6.17238968 302.195744,6.78943688 L302.195744,47.6379615 C302.195744,48.2550087 301.640402,48.8103512 301.023355,48.8103512 L293.680493,48.8103512 C293.001741,48.8103512 292.508103,48.2550087 292.508103,47.6379615 L292.508103,31.4096202 L274.860554,31.4096202 L274.860554,47.6379615 C274.860554,48.2550087 274.366916,48.8103512 273.688164,48.8103512 L266.345302,48.8103512 C265.728255,48.8103512 265.172912,48.2550087 265.172912,47.6379615 Z M329.690342,48.5635323 L318.02815,7.09796048 C317.781331,6.2340944 318.274969,5.6170472 319.138835,5.6170472 L326.358287,5.6170472 C326.851925,5.6170472 327.345563,6.04898024 327.468972,6.48091328 L332.775578,27.3988134 L333.022397,27.3988134 L342.586628,5.67875192 C342.771743,5.3085236 343.141971,5 343.635609,5 L344.746294,5 C345.301636,5 345.671864,5.3085236 345.795274,5.67875192 L355.359506,27.3988134 L355.606324,27.3988134 L360.91293,6.48091328 C361.03634,6.04898024 361.529978,5.6170472 362.023615,5.6170472 L369.243068,5.6170472 C370.106934,5.6170472 370.600571,6.2340944 370.353752,7.09796048 L358.69156,48.5635323 C358.568151,49.0571701 358.074513,49.4273984 357.580875,49.4273984 L356.5936,49.4273984 C356.161667,49.4273984 355.729734,49.1188748 355.54462,48.7486465 L344.252656,23.511416 L344.067542,23.511416 L332.837283,48.7486465 C332.652169,49.1188748 332.220236,49.4273984 331.788302,49.4273984 L330.801027,49.4273984 C330.307389,49.4273984 329.813751,49.0571701 329.690342,48.5635323 Z M382.915808,27.2754039 C382.915808,14.9344599 392.726858,5 405.067802,5 C417.408746,5 427.281501,14.9344599 427.281501,27.2754039 C427.281501,39.6163479 417.408746,49.4273984 405.067802,49.4273984 C392.726858,49.4273984 382.915808,39.6163479 382.915808,27.2754039 Z M392.788563,27.2754039 C392.788563,34.0012184 398.341988,39.5546432 405.067802,39.5546432 C411.855321,39.5546432 417.408746,34.0012184 417.408746,27.2754039 C417.408746,20.4878847 411.855321,14.8727552 405.067802,14.8727552 C398.341988,14.8727552 392.788563,20.4878847 392.788563,27.2754039 Z M443.977773,47.6379615 L443.977773,6.78943688 C443.977773,6.17238968 444.471411,5.6170472 445.150163,5.6170472 L463.599874,5.6170472 C471.00444,5.6170472 477.051503,11.602405 477.051503,18.9452667 C477.051503,24.622101 473.287515,29.1882502 467.919204,31.3479154 L476.372751,47.0209143 C476.804684,47.8230757 476.372751,48.8103512 475.323771,48.8103512 L467.117043,48.8103512 C466.623405,48.8103512 466.253177,48.5018276 466.129767,48.2550087 L457.92304,31.9032579 L453.665414,31.9032579 L453.665414,47.6379615 C453.665414,48.2550087 453.110072,48.8103512 452.493024,48.8103512 L445.150163,48.8103512 C444.471411,48.8103512 443.977773,48.2550087 443.977773,47.6379615 Z M453.665414,24.0667585 L462.797713,24.0667585 C465.327606,24.0667585 467.487271,21.7219791 467.487271,19.1303809 C467.487271,16.5387826 465.327606,14.4408222 462.797713,14.4408222 L453.665414,14.4408222 L453.665414,24.0667585 Z M494.549936,47.3294379 L494.549936,7.09796048 C494.549936,6.29579912 495.166983,5.6170472 496.030849,5.6170472 L503.250301,5.6170472 C504.052463,5.6170472 504.731215,6.29579912 504.731215,7.09796048 L504.731215,23.3263018 L518.429662,6.2340944 C518.676481,5.9255708 519.231824,5.6170472 519.602052,5.6170472 L527.376847,5.6170472 C528.549236,5.6170472 529.166284,6.97455104 528.487532,7.90012184 L514.048627,25.9796048 L529.783331,46.4655718 C530.462083,47.3911426 529.783331,48.7486465 528.610941,48.7486465 L520.09569,48.7486465 C519.663757,48.7486465 519.108414,48.5018276 518.985005,48.3167134 L504.731215,28.9414314 L504.731215,47.3294379 C504.731215,48.1315993 504.052463,48.8103512 503.250301,48.8103512 L496.030849,48.8103512 C495.166983,48.8103512 494.549936,48.1315993 494.549936,47.3294379 Z" id="PATCHWORK-Copy-2" fill="#486174"></path>
    </g>
</svg>